<svg width="32" height="32" viewBox="0 0 32 32" fill="none" xmlns="http://www.w3.org/2000/svg">
<path d="M21.8781 7C23.5689 7 24.9505 8.28863 25.0439 9.9123L25.0489 10.0875V15.5708C24.597 15.289 24.106 15.0616 23.5855 14.8978V10.0875C23.5855 9.21524 22.8956 8.49987 22.0181 8.43051L21.8781 8.425H10.6586C10.0731 8.425 9.5564 8.71202 9.24885 9.14947C8.94258 8.99025 8.59192 8.9 8.21961 8.9C8.0428 8.9 7.87088 8.92035 7.70618 8.95879C8.1484 7.86354 9.2147 7.07374 10.4787 7.00488L10.6586 7H21.8781ZM15.5985 22.675C15.7666 23.1818 16.0003 23.66 16.2896 24.1H10.6586C8.96787 24.1 7.5862 22.8113 7.49293 21.1877L7.4879 21.0125L7.48762 13.0535C7.71657 13.1323 7.96295 13.1752 8.21961 13.1752C8.47624 13.1752 8.7226 13.1323 8.95152 13.0535L8.95132 21.0125C8.95132 21.8848 9.64118 22.6001 10.5186 22.6695L10.6586 22.675H15.5985ZM16.0055 17.9279C16.2853 17.4045 16.6398 16.925 17.0552 16.5029H13.0955L12.9962 16.5094C12.639 16.5566 12.3638 16.8547 12.3638 17.2154C12.3638 17.6089 12.6914 17.9279 13.0955 17.9279H16.0055ZM19.4413 13.1714C19.8455 13.1714 20.173 13.4904 20.173 13.8839C20.173 14.2446 19.8978 14.5427 19.5406 14.5899L19.4413 14.5964H13.0955C12.6914 14.5964 12.3638 14.2774 12.3638 13.8839C12.3638 13.5232 12.639 13.2251 12.9962 13.1779L13.0955 13.1714H19.4413ZM8.21961 9.85C8.89318 9.85 9.43922 10.3817 9.43922 11.0376C9.43922 11.6935 8.89318 12.2252 8.21961 12.2252C7.54604 12.2252 7 11.6935 7 11.0376C7 10.3817 7.54604 9.85 8.21961 9.85ZM27 20.775C27 17.8893 24.5977 15.55 21.6341 15.55C18.6706 15.55 16.2683 17.8893 16.2683 20.775C16.2683 23.6607 18.6706 26 21.6341 26C24.5977 26 27 23.6607 27 20.775ZM22.1225 21.25L22.123 23.6283C22.123 23.8907 21.9047 24.1033 21.6352 24.1033C21.3659 24.1033 21.1474 23.8907 21.1474 23.6283L21.1469 21.25H18.703C18.4339 21.25 18.2157 21.0374 18.2157 20.775C18.2157 20.5127 18.4339 20.3 18.703 20.3H21.1468L21.1463 17.9243C21.1463 17.6619 21.3648 17.4493 21.6341 17.4493C21.9035 17.4493 22.122 17.6619 22.122 17.9243L22.1224 20.3H24.5577C24.8268 20.3 25.045 20.5127 25.045 20.775C25.045 21.0374 24.8268 21.25 24.5577 21.25H22.1225Z" fill="#75777F"/>
</svg>
