<svg width="56" height="56" viewBox="0 0 56 56" fill="none" xmlns="http://www.w3.org/2000/svg">
<g clip-path="url(#clip0_148_7650)">
<path d="M56 0.298584H0V56.2986H56V0.298584Z" fill="#161617"/>
<path d="M11.8213 8.52248L9.10938 6.16152L10.1323 5.14307L12.544 7.80419L11.8213 8.52248Z" fill="#CCF872" stroke="black" stroke-width="0.149333" stroke-miterlimit="10"/>
<path d="M7.52815 50.5494L5.13135 47.8689L6.27225 46.9863L8.33455 49.9267L7.52815 50.5494Z" fill="#CCF872" stroke="black" stroke-width="0.149333" stroke-miterlimit="10"/>
<path d="M46.6816 12.0078L48.3467 7.12158L50.2537 7.92649L48.0301 12.5782L46.6816 12.0078Z" fill="url(#paint0_linear_148_7650)" stroke="black" stroke-width="0.149333" stroke-miterlimit="10"/>
<path d="M5.02487 10.1727L2.92226 10.6296L2.7998 9.77544L4.93826 9.56787L5.02487 10.1727Z" fill="#CCF872" stroke="black" stroke-width="0.0896" stroke-miterlimit="10"/>
<path d="M53.5777 18.9744L51.1436 16.8539L52.062 15.9399L54.2273 18.3293L53.5777 18.9744Z" fill="#3B99F1" stroke="black" stroke-width="0.149333" stroke-miterlimit="10"/>
<path d="M53.3447 40.8099L54.1033 37.6724L55.3368 38.0651L54.2168 41.0891L53.3447 40.8099Z" fill="#3B99F1" stroke="black" stroke-width="0.149333" stroke-miterlimit="10"/>
<path d="M6.78719 51.9426L5.28489 53.0372L4.88916 52.4055L6.50793 51.4961L6.78719 51.9426Z" fill="#3B99F1" stroke="black" stroke-width="0.0866133" stroke-miterlimit="10"/>
<path d="M52.5845 21.6817L50.6969 22.0924L50.5864 21.3263L52.5069 21.1396L52.5845 21.6817Z" fill="#CCF872" stroke="black" stroke-width="0.08064" stroke-miterlimit="10"/>
<path d="M50.9272 39.6479L52.552 38.6011L52.9238 39.282L51.1901 40.1288L50.9272 39.6479Z" fill="#CCF872" stroke="black" stroke-width="0.08064" stroke-miterlimit="10"/>
<path d="M8.30733 12.6186C8.596 12.6186 8.83 12.3846 8.83 12.0959C8.83 11.8072 8.596 11.5732 8.30733 11.5732C8.01867 11.5732 7.78467 11.8072 7.78467 12.0959C7.78467 12.3846 8.01867 12.6186 8.30733 12.6186Z" fill="#3B99F1" stroke="black" stroke-width="0.149333" stroke-miterlimit="10"/>
<path d="M3.82748 43.008C3.99242 43.008 4.12614 42.8743 4.12614 42.7093C4.12614 42.5444 3.99242 42.4106 3.82748 42.4106C3.66253 42.4106 3.52881 42.5444 3.52881 42.7093C3.52881 42.8743 3.66253 43.008 3.82748 43.008Z" fill="white" stroke="black" stroke-width="0.08512" stroke-miterlimit="10"/>
<path d="M3.67814 44.7999C3.76062 44.7999 3.82748 44.733 3.82748 44.6506C3.82748 44.5681 3.76062 44.5012 3.67814 44.5012C3.59567 44.5012 3.52881 44.5681 3.52881 44.6506C3.52881 44.733 3.59567 44.7999 3.67814 44.7999Z" fill="white" stroke="black" stroke-width="0.0433067" stroke-miterlimit="10"/>
<path d="M4.79777 44.128C4.88025 44.128 4.9471 44.0612 4.9471 43.9787C4.9471 43.8962 4.88025 43.8293 4.79777 43.8293C4.7153 43.8293 4.64844 43.8962 4.64844 43.9787C4.64844 44.0612 4.7153 44.128 4.79777 44.128Z" fill="white" stroke="black" stroke-width="0.0433067" stroke-miterlimit="10"/>
<path d="M5.32064 7.01872C5.48559 7.01872 5.61931 6.885 5.61931 6.72005C5.61931 6.5551 5.48559 6.42139 5.32064 6.42139C5.15569 6.42139 5.02197 6.5551 5.02197 6.72005C5.02197 6.885 5.15569 7.01872 5.32064 7.01872Z" fill="white" stroke="black" stroke-width="0.08512" stroke-miterlimit="10"/>
<path d="M14.5048 3.95736C14.5873 3.95736 14.6541 3.8905 14.6541 3.80802C14.6541 3.72555 14.5873 3.65869 14.5048 3.65869C14.4223 3.65869 14.3555 3.72555 14.3555 3.80802C14.3555 3.8905 14.4223 3.95736 14.5048 3.95736Z" fill="white" stroke="black" stroke-width="0.0433067" stroke-miterlimit="10"/>
<path d="M8.51213 14.8497C8.5946 14.8497 8.66146 14.7828 8.66146 14.7004C8.66146 14.6179 8.5946 14.551 8.51213 14.551C8.42965 14.551 8.36279 14.6179 8.36279 14.7004C8.36279 14.7828 8.42965 14.8497 8.51213 14.8497Z" fill="white" stroke="black" stroke-width="0.0433067" stroke-miterlimit="10"/>
<path d="M1.79191 39.639C1.87439 39.639 1.94124 39.5721 1.94124 39.4897C1.94124 39.4072 1.87439 39.3403 1.79191 39.3403C1.70944 39.3403 1.64258 39.4072 1.64258 39.4897C1.64258 39.5721 1.70944 39.639 1.79191 39.639Z" fill="white" stroke="black" stroke-width="0.0433067" stroke-miterlimit="10"/>
<path d="M12.414 2.16537C12.4965 2.16537 12.5633 2.09851 12.5633 2.01603C12.5633 1.93356 12.4965 1.8667 12.414 1.8667C12.3315 1.8667 12.2646 1.93356 12.2646 2.01603C12.2646 2.09851 12.3315 2.16537 12.414 2.16537Z" fill="white" stroke="black" stroke-width="0.0433067" stroke-miterlimit="10"/>
<path d="M4.33049 30.0816C4.41296 30.0816 4.47982 30.0148 4.47982 29.9323C4.47982 29.8498 4.41296 29.783 4.33049 29.783C4.24801 29.783 4.18115 29.8498 4.18115 29.9323C4.18115 30.0148 4.24801 30.0816 4.33049 30.0816Z" fill="white" stroke="black" stroke-width="0.0433067" stroke-miterlimit="10"/>
<path d="M43.456 43.4559C43.5384 43.4559 43.6053 43.389 43.6053 43.3066C43.6053 43.2241 43.5384 43.1572 43.456 43.1572C43.3735 43.1572 43.3066 43.2241 43.3066 43.3066C43.3066 43.389 43.3735 43.4559 43.456 43.4559Z" fill="white" stroke="black" stroke-width="0.0433067" stroke-miterlimit="10"/>
<path d="M5.22648 30.9776C5.30896 30.9776 5.37582 30.9108 5.37582 30.8283C5.37582 30.7458 5.30896 30.679 5.22648 30.679C5.14401 30.679 5.07715 30.7458 5.07715 30.8283C5.07715 30.9108 5.14401 30.9776 5.22648 30.9776Z" fill="white" stroke="black" stroke-width="0.0433067" stroke-miterlimit="10"/>
<path d="M44.352 44.3519C44.4344 44.3519 44.5013 44.285 44.5013 44.2026C44.5013 44.1201 44.4344 44.0532 44.352 44.0532C44.2695 44.0532 44.2026 44.1201 44.2026 44.2026C44.2026 44.285 44.2695 44.3519 44.352 44.3519Z" fill="white" stroke="black" stroke-width="0.0433067" stroke-miterlimit="10"/>
<path d="M11.7973 52.4818C11.8798 52.4818 11.9466 52.4149 11.9466 52.3324C11.9466 52.25 11.8798 52.1831 11.7973 52.1831C11.7148 52.1831 11.6479 52.25 11.6479 52.3324C11.6479 52.4149 11.7148 52.4818 11.7973 52.4818Z" fill="white" stroke="black" stroke-width="0.0433067" stroke-miterlimit="10"/>
<path d="M40.3393 14.7931C40.4217 14.7931 40.4886 14.7262 40.4886 14.6437C40.4886 14.5612 40.4217 14.4944 40.3393 14.4944C40.2568 14.4944 40.1899 14.5612 40.1899 14.6437C40.1899 14.7262 40.2568 14.7931 40.3393 14.7931Z" fill="white" stroke="black" stroke-width="0.0433067" stroke-miterlimit="10"/>
<path d="M10.6025 13.5894C10.6849 13.5894 10.7518 13.5226 10.7518 13.4401C10.7518 13.3576 10.6849 13.2908 10.6025 13.2908C10.52 13.2908 10.4531 13.3576 10.4531 13.4401C10.4531 13.5226 10.52 13.5894 10.6025 13.5894Z" fill="white" stroke="black" stroke-width="0.0433067" stroke-miterlimit="10"/>
<path d="M10.622 45.1734C10.7045 45.1734 10.7713 45.1066 10.7713 45.0241C10.7713 44.9416 10.7045 44.8748 10.622 44.8748C10.5395 44.8748 10.4727 44.9416 10.4727 45.0241C10.4727 45.1066 10.5395 45.1734 10.622 45.1734Z" fill="white" stroke="black" stroke-width="0.0433067" stroke-miterlimit="10"/>
<path d="M51.8383 5.38485C51.9208 5.38485 51.9876 5.31799 51.9876 5.23551C51.9876 5.15304 51.9208 5.08618 51.8383 5.08618C51.7558 5.08618 51.689 5.15304 51.689 5.23551C51.689 5.31799 51.7558 5.38485 51.8383 5.38485Z" fill="white" stroke="black" stroke-width="0.0433067" stroke-miterlimit="10"/>
<path d="M13.8879 7.23365C14.1354 7.23365 14.3359 7.03307 14.3359 6.78565C14.3359 6.53822 14.1354 6.33765 13.8879 6.33765C13.6405 6.33765 13.4399 6.53822 13.4399 6.78565C13.4399 7.03307 13.6405 7.23365 13.8879 7.23365Z" fill="white" stroke="black" stroke-width="0.0433067" stroke-miterlimit="10"/>
<path d="M7.61597 40.2363C7.86339 40.2363 8.06397 40.0358 8.06397 39.7883C8.06397 39.5409 7.86339 39.3403 7.61597 39.3403C7.36855 39.3403 7.16797 39.5409 7.16797 39.7883C7.16797 40.0358 7.36855 40.2363 7.61597 40.2363Z" fill="white" stroke="black" stroke-width="0.0433067" stroke-miterlimit="10"/>
<path d="M12.2645 49.9521C12.4294 49.9521 12.5632 49.8184 12.5632 49.6534C12.5632 49.4885 12.4294 49.3547 12.2645 49.3547C12.0995 49.3547 11.9658 49.4885 11.9658 49.6534C11.9658 49.8184 12.0995 49.9521 12.2645 49.9521Z" fill="white" stroke="black" stroke-width="0.08512" stroke-miterlimit="10"/>
<path d="M52.2861 11.6571C52.3685 11.6571 52.4354 11.5902 52.4354 11.5077C52.4354 11.4253 52.3685 11.3584 52.2861 11.3584C52.2036 11.3584 52.1367 11.4253 52.1367 11.5077C52.1367 11.5902 52.2036 11.6571 52.2861 11.6571Z" fill="white" stroke="black" stroke-width="0.0433067" stroke-miterlimit="10"/>
<path d="M53.3119 24.2577C53.3944 24.2577 53.4613 24.1908 53.4613 24.1083C53.4613 24.0258 53.3944 23.959 53.3119 23.959C53.2295 23.959 53.1626 24.0258 53.1626 24.1083C53.1626 24.1908 53.2295 24.2577 53.3119 24.2577Z" fill="white" stroke="black" stroke-width="0.0433067" stroke-miterlimit="10"/>
<path d="M39.4242 13.888C39.5067 13.888 39.5736 13.8212 39.5736 13.7387C39.5736 13.6562 39.5067 13.5894 39.4242 13.5894C39.3418 13.5894 39.2749 13.6562 39.2749 13.7387C39.2749 13.8212 39.3418 13.888 39.4242 13.888Z" fill="white" stroke="black" stroke-width="0.0433067" stroke-miterlimit="10"/>
<path d="M51.9872 14.1956C52.0697 14.1956 52.1366 14.1288 52.1366 14.0463C52.1366 13.9638 52.0697 13.897 51.9872 13.897C51.9047 13.897 51.8379 13.9638 51.8379 14.0463C51.8379 14.1288 51.9047 14.1956 51.9872 14.1956Z" fill="white" stroke="black" stroke-width="0.0433067" stroke-miterlimit="10"/>
<path d="M48.6825 40.2364C48.765 40.2364 48.8319 40.1696 48.8319 40.0871C48.8319 40.0046 48.765 39.9377 48.6825 39.9377C48.6001 39.9377 48.5332 40.0046 48.5332 40.0871C48.5332 40.1696 48.6001 40.2364 48.6825 40.2364Z" fill="white" stroke="black" stroke-width="0.0433067" stroke-miterlimit="10"/>
<path d="M11.4241 43.5218C11.6303 43.5218 11.7974 43.3547 11.7974 43.1485C11.7974 42.9423 11.6303 42.7751 11.4241 42.7751C11.2179 42.7751 11.0508 42.9423 11.0508 43.1485C11.0508 43.3547 11.2179 43.5218 11.4241 43.5218Z" fill="#E7FFB5" stroke="black" stroke-width="0.158293" stroke-miterlimit="10"/>
<path d="M49.389 38.2144C49.6967 38.2144 49.9461 37.965 49.9461 37.6574C49.9461 37.3497 49.6967 37.1003 49.389 37.1003C49.0814 37.1003 48.832 37.3497 48.832 37.6574C48.832 37.965 49.0814 38.2144 49.389 38.2144Z" fill="#E7FFB5" stroke="black" stroke-width="0.158293" stroke-miterlimit="10"/>
<path d="M33.8285 3.369C33.9819 3.369 34.1063 3.24464 34.1063 3.09124C34.1063 2.93783 33.9819 2.81348 33.8285 2.81348C33.6751 2.81348 33.5508 2.93783 33.5508 3.09124C33.5508 3.24464 33.6751 3.369 33.8285 3.369Z" fill="white" stroke="black" stroke-width="0.0791467" stroke-miterlimit="10"/>
<path d="M36.4223 7.95347C36.5757 7.95347 36.7001 7.82911 36.7001 7.67571C36.7001 7.52231 36.5757 7.39795 36.4223 7.39795C36.2689 7.39795 36.1445 7.52231 36.1445 7.67571C36.1445 7.82911 36.2689 7.95347 36.4223 7.95347Z" fill="white" stroke="black" stroke-width="0.0791467" stroke-miterlimit="10"/>
<path d="M50.7524 28.2479C50.9058 28.2479 51.0301 28.1235 51.0301 27.9701C51.0301 27.8167 50.9058 27.6924 50.7524 27.6924C50.599 27.6924 50.4746 27.8167 50.4746 27.9701C50.4746 28.1235 50.599 28.2479 50.7524 28.2479Z" fill="white" stroke="black" stroke-width="0.0791467" stroke-miterlimit="10"/>
<path d="M4.17215 22.0325C4.51937 22.0325 4.80084 21.7511 4.80084 21.4038C4.80084 21.0566 4.51937 20.7751 4.17215 20.7751C3.82493 20.7751 3.54346 21.0566 3.54346 21.4038C3.54346 21.7511 3.82493 22.0325 4.17215 22.0325Z" fill="white" stroke="black" stroke-width="0.1792" stroke-miterlimit="10"/>
<path d="M7.38587 24.259C7.55906 24.259 7.69947 24.1186 7.69947 23.9454C7.69947 23.7722 7.55906 23.6318 7.38587 23.6318C7.21267 23.6318 7.07227 23.7722 7.07227 23.9454C7.07227 24.1186 7.21267 24.259 7.38587 24.259Z" fill="white" stroke="black" stroke-width="0.0896" stroke-miterlimit="10"/>
<path d="M7.52796 21.5127C7.70115 21.5127 7.84155 21.3723 7.84155 21.1991C7.84155 21.0259 7.70115 20.8855 7.52796 20.8855C7.35476 20.8855 7.21436 21.0259 7.21436 21.1991C7.21436 21.3723 7.35476 21.5127 7.52796 21.5127Z" fill="white" stroke="black" stroke-width="0.0896" stroke-miterlimit="10"/>
<path d="M53.9288 21.5877C54.3 21.5877 54.6008 21.2868 54.6008 20.9157C54.6008 20.5445 54.3 20.2437 53.9288 20.2437C53.5577 20.2437 53.2568 20.5445 53.2568 20.9157C53.2568 21.2868 53.5577 21.5877 53.9288 21.5877Z" fill="#3B99F1" stroke="black" stroke-width="0.19264" stroke-miterlimit="10"/>
<path d="M36.0833 49.5788C36.2483 49.5788 36.382 49.4451 36.382 49.2801C36.382 49.1152 36.2483 48.9814 36.0833 48.9814C35.9184 48.9814 35.7847 49.1152 35.7847 49.2801C35.7847 49.4451 35.9184 49.5788 36.0833 49.5788Z" fill="#CCF872" stroke="black" stroke-width="0.08064" stroke-miterlimit="10"/>
<path d="M38.0246 52.1173C38.3545 52.1173 38.6219 51.8498 38.6219 51.5199C38.6219 51.19 38.3545 50.9226 38.0246 50.9226C37.6947 50.9226 37.4272 51.19 37.4272 51.5199C37.4272 51.8498 37.6947 52.1173 38.0246 52.1173Z" fill="white" stroke="black" stroke-width="0.0881067" stroke-miterlimit="10"/>
<path d="M46.0143 43.7546C46.3854 43.7546 46.6863 43.4538 46.6863 43.0826C46.6863 42.7115 46.3854 42.4106 46.0143 42.4106C45.6431 42.4106 45.3423 42.7115 45.3423 43.0826C45.3423 43.4538 45.6431 43.7546 46.0143 43.7546Z" fill="#3B99F1" stroke="black" stroke-width="0.19264" stroke-miterlimit="10"/>
<path d="M2.25323 22.0687C1.87803 19.609 1.63186 19.2357 1.42142 19.2357C1.21099 19.2357 0.964818 19.609 0.58961 22.0687C0.669019 20.3157 0.611447 19.3271 0.273958 18.9677C0.174696 18.8625 0.0496264 18.8089 -0.0972807 18.8089C-0.551899 18.8089 -1.25269 19.3171 -2.31081 20.27C-1.0899 18.8566 -0.643219 18.0406 -0.833802 17.6039C-0.937034 17.3676 -1.22092 17.2525 -1.70135 17.2525C-2.12619 17.2525 -2.71977 17.3438 -3.50195 17.5304C-1.96737 16.9547 -1.26857 16.5775 -1.26857 16.1646C-1.26857 15.7516 -1.96737 15.3764 -3.50195 14.7987C-2.71977 14.9853 -2.12619 15.0767 -1.70333 15.0767C-1.22291 15.0767 -0.939019 14.9615 -0.835787 14.7253C-0.643219 14.2885 -1.0899 13.4726 -2.31081 12.0591C-1.2507 13.012 -0.551899 13.5202 -0.0972807 13.5202C0.0496264 13.5202 0.174696 13.4666 0.273958 13.3614C0.611447 13.0021 0.669019 12.0115 0.58961 10.2605C0.964818 12.7202 1.21099 13.0934 1.42142 13.0934C1.63186 13.0934 1.87803 12.7202 2.25323 10.2605C2.17382 12.0135 2.2314 13.0021 2.56889 13.3634C2.66815 13.4686 2.79322 13.5222 2.94012 13.5222C3.39474 13.5222 4.09553 13.014 5.15366 12.0611C3.93274 13.4746 3.48606 14.2905 3.67665 14.7273C3.77988 14.9635 4.06377 15.0787 4.54419 15.0787C4.96903 15.0787 5.56261 14.9873 6.34281 14.8007C4.80823 15.3764 4.10942 15.7536 4.10942 16.1666C4.10942 16.5795 4.80823 16.9547 6.34281 17.5324C5.56063 17.3458 4.96704 17.2545 4.54221 17.2545C4.06178 17.2545 3.77789 17.3696 3.67466 17.6059C3.48209 18.0426 3.92877 18.8585 5.14969 20.272C4.08957 19.3191 3.39077 18.8109 2.93615 18.8109C2.78925 18.8109 2.66418 18.8645 2.56492 18.9697C2.22743 19.329 2.16985 20.3197 2.24926 22.0726L2.25323 22.0687Z" fill="url(#paint1_radial_148_7650)"/>
<path d="M0.671175 11.0903C0.998738 12.9584 1.22108 13.149 1.42159 13.149C1.6221 13.149 1.84445 12.9564 2.17201 11.0903C2.14819 12.3489 2.23951 13.0914 2.52935 13.4011C2.63854 13.5182 2.77751 13.5758 2.94029 13.5758C3.33337 13.5758 3.87534 13.2343 4.66745 12.5613C3.77211 13.6711 3.45646 14.352 3.62917 14.7491C3.74233 15.0071 4.0421 15.1322 4.54635 15.1322C4.84612 15.1322 5.22728 15.0865 5.69977 14.9972C4.57811 15.4538 4.05997 15.7913 4.05997 16.1665C4.05997 16.5417 4.57811 16.8812 5.69977 17.3358C5.22728 17.2445 4.84612 17.2008 4.54635 17.2008C4.0421 17.2008 3.74233 17.3259 3.62917 17.584C3.45447 17.981 3.77012 18.662 4.66546 19.7717C3.87335 19.0967 3.33139 18.7553 2.93831 18.7553C2.77552 18.7553 2.63854 18.8148 2.52737 18.93C2.23752 19.2397 2.1462 19.9841 2.17002 21.2408C1.84246 19.3727 1.62012 19.1821 1.41961 19.1821C1.2191 19.1821 0.996753 19.3747 0.669189 21.2408C0.693012 19.9821 0.601692 19.2397 0.311848 18.93C0.20266 18.8128 0.0636935 18.7553 -0.0990953 18.7553C-0.492171 18.7553 -1.03414 19.0967 -1.82625 19.7697C-0.930907 18.66 -0.615255 17.979 -0.787971 17.582C-0.901129 17.3239 -1.2009 17.1988 -1.70515 17.1988C-2.00492 17.1988 -2.38608 17.2445 -2.85857 17.3338C-1.73691 16.8772 -1.21877 16.5397 -1.21877 16.1645C-1.21877 15.7893 -1.73691 15.4498 -2.85857 14.9952C-2.38608 15.0865 -2.00492 15.1302 -1.70515 15.1302C-1.2009 15.1302 -0.901129 15.0052 -0.787971 14.7471C-0.61327 14.35 -0.928922 13.6691 -1.82426 12.5593C-1.03215 13.2343 -0.490186 13.5758 -0.0971103 13.5758C0.0656791 13.5758 0.20266 13.5162 0.313833 13.4011C0.603677 13.0914 0.694998 12.3469 0.671175 11.0903ZM2.3745 9.02563C2.01716 11.7037 1.71938 13.0418 1.42159 13.0418C1.12381 13.0418 0.826023 11.7037 0.468681 9.02563C0.659264 12.0869 0.629485 13.4686 -0.0971103 13.4686C-0.641064 13.4686 -1.57412 12.6924 -3.09481 11.265C-0.698635 13.8656 -0.190416 15.023 -1.70316 15.023C-2.32851 15.023 -3.30127 14.8245 -4.62939 14.4473C-0.222179 16.0057 -0.222179 16.3214 -4.62939 17.8798C-3.30127 17.5026 -2.3305 17.3041 -1.70316 17.3041C-0.188431 17.3041 -0.698635 18.4634 -3.09481 21.0621C-1.57412 19.6347 -0.639078 18.8585 -0.0971103 18.8585C0.6275 18.8585 0.659264 20.2402 0.468681 23.3014C0.826023 20.6234 1.12381 19.2853 1.42159 19.2853C1.71938 19.2853 2.01716 20.6234 2.3745 23.3014C2.18392 20.2402 2.2137 18.8585 2.94029 18.8585C3.48425 18.8585 4.41731 19.6347 5.93799 21.0621C3.54182 18.4614 3.0336 17.3041 4.54635 17.3041C5.17169 17.3041 6.14446 17.5026 7.47258 17.8798C3.06536 16.3214 3.06536 16.0057 7.47258 14.4473C6.14446 14.8245 5.17368 15.023 4.54635 15.023C3.03161 15.023 3.54182 13.8636 5.93799 11.265C4.41731 12.6924 3.48226 13.4686 2.94029 13.4686C2.21568 13.4686 2.18392 12.0869 2.3745 9.02563Z" fill="black"/>
<path d="M58.5055 56.1885L54.8462 53.7129L55.0128 58.141L52.9172 54.2415L51.016 58.2401L50.966 53.8091L47.4331 56.4632L49.437 52.5162L45.082 53.2164L48.683 50.6571L44.5015 49.2443L48.8746 48.6599L45.8263 45.4562L49.9689 46.9807L48.7524 42.7212L51.716 46.003L52.6089 41.6641L53.7144 45.9542L56.5127 42.5288L55.5058 46.8426L59.5693 45.1159L56.6807 48.466L61.0775 48.8328L56.971 50.4521L60.6942 52.8286L56.3085 52.3461L58.5055 56.1885Z" fill="url(#paint2_radial_148_7650)" stroke="black" stroke-width="0.149333" stroke-miterlimit="10"/>
<path d="M44.9643 56.2717L43.5068 55.2906L43.574 57.0453L42.7392 55.4997L41.9821 57.0856L41.9627 55.3279L40.556 56.3807L41.3534 54.8157L39.6196 55.0935L41.0532 54.078L39.3882 53.518L41.1294 53.2865L39.9153 52.0157L41.5655 52.6205L41.0816 50.9316L42.2614 52.2337L42.6168 50.5134L43.0558 52.2128L44.1713 50.8554L43.7696 52.5653L45.3884 51.8813L44.2385 53.2089L45.9887 53.3552L44.3535 53.9974L45.8364 54.9397L44.0892 54.7485L44.9643 56.2717Z" fill="url(#paint3_radial_148_7650)" stroke="black" stroke-width="0.149333" stroke-miterlimit="10"/>
<path d="M42.8035 49.7071L41.9762 49.1515L42.015 50.1461L41.5416 49.2695L41.113 50.1685L41.1011 49.1724L40.3036 49.7683L40.7561 48.8812L39.772 49.0395L40.5859 48.4646L39.6421 48.1465L40.6292 48.0151L39.9408 47.2953L40.8756 47.6373L40.6008 46.6801L41.2698 47.4178L41.4714 46.4426L41.7208 47.4073L42.3525 46.6368L42.1255 47.6059L43.0424 47.2177L42.3913 47.9718L43.3829 48.0539L42.457 48.4183L43.2963 48.9514L42.3077 48.8439L42.8035 49.7071Z" fill="white" stroke="black" stroke-width="0.01792" stroke-miterlimit="10"/>
<path d="M50.8121 3.44804C45.4092 3.44804 44.0787 4.7786 44.0787 10.1815C44.0787 4.7786 42.7481 3.44804 37.3452 3.44804C42.7481 3.44804 44.0787 2.11748 44.0787 -3.2854C44.0787 2.11748 45.4092 3.44804 50.8121 3.44804Z" fill="url(#paint4_radial_148_7650)"/>
<path d="M50.8121 3.44804C45.4092 3.44804 44.0787 4.7786 44.0787 10.1815C44.0787 4.7786 42.7481 3.44804 37.3452 3.44804C42.7481 3.44804 44.0787 2.11748 44.0787 -3.2854C44.0787 2.11748 45.4092 3.44804 50.8121 3.44804Z" stroke="#020202" stroke-width="0.333013" stroke-miterlimit="10"/>
<path d="M40.7798 6.13601C38.9923 6.13601 38.5518 6.57655 38.5518 8.36407C38.5518 6.57655 38.1113 6.13601 36.3237 6.13601C38.1113 6.13601 38.5518 5.69548 38.5518 3.90796C38.5518 5.69548 38.9923 6.13601 40.7798 6.13601Z" fill="#FFABC0"/>
<path d="M40.7798 6.13601C38.9923 6.13601 38.5518 6.57655 38.5518 8.36407C38.5518 6.57655 38.1113 6.13601 36.3237 6.13601C38.1113 6.13601 38.5518 5.69548 38.5518 3.90796C38.5518 5.69548 38.9923 6.13601 40.7798 6.13601Z" stroke="#020202" stroke-width="0.110507" stroke-miterlimit="10"/>
<path d="M4.43026 2.0013L4.44915 2.20117L4.56546 2.03752L6.09909 -0.120467L4.99703 2.28669L4.91345 2.46924L5.096 2.38566L7.50316 1.2836L5.34517 2.81723L5.18152 2.93354L5.38139 2.95243L8.01708 3.2016L5.38139 3.45077L5.18152 3.46966L5.34517 3.58596L7.50316 5.11959L5.096 4.01754L4.91345 3.93396L4.99703 4.11651L6.09909 6.52366L4.56546 4.36568L4.44915 4.20202L4.43026 4.4019L4.18109 7.03759L3.93192 4.4019L3.91303 4.20202L3.79673 4.36568L2.2631 6.52366L3.36515 4.11651L3.44873 3.93396L3.26618 4.01754L0.859025 5.1196L3.01701 3.58596L3.18067 3.46966L2.98079 3.45077L0.345099 3.2016L2.98079 2.95243L3.18067 2.93354L3.01701 2.81723L0.859026 1.2836L3.26618 2.38566L3.44873 2.46924L3.36515 2.28669L2.2631 -0.120466L3.79673 2.03752L3.91303 2.20117L3.93192 2.0013L4.18109 -0.634393L4.43026 2.0013Z" fill="#6DFF6E" stroke="black" stroke-width="0.149333"/>
<mask id="path-61-inside-1_148_7650" fill="white">
<path fill-rule="evenodd" clip-rule="evenodd" d="M14.9919 51.0284L14.6345 47.1895L14.2742 51.0603L13.0618 49.8359L13.9027 51.3102L11.4985 51.7923L13.8957 52.273L12.9425 53.7004L14.2766 52.5497L14.6345 56.3951L14.976 52.7271L16.085 53.8471L15.2063 52.3065L17.7705 51.7923L15.3236 51.3016L16.2043 49.9827L14.9919 51.0284Z"/>
</mask>
<path fill-rule="evenodd" clip-rule="evenodd" d="M14.9919 51.0284L14.6345 47.1895L14.2742 51.0603L13.0618 49.8359L13.9027 51.3102L11.4985 51.7923L13.8957 52.273L12.9425 53.7004L14.2766 52.5497L14.6345 56.3951L14.976 52.7271L16.085 53.8471L15.2063 52.3065L17.7705 51.7923L15.3236 51.3016L16.2043 49.9827L14.9919 51.0284Z" fill="url(#paint5_linear_148_7650)"/>
<path d="M14.6345 47.1895L14.7832 47.1756L14.4858 47.1756L14.6345 47.1895ZM14.9919 51.0284L14.8432 51.0423L14.8701 51.3307L15.0894 51.1415L14.9919 51.0284ZM14.2742 51.0603L14.1681 51.1654L14.3932 51.3928L14.4229 51.0742L14.2742 51.0603ZM13.0618 49.8359L13.168 49.7309L12.9321 49.9099L13.0618 49.8359ZM13.9027 51.3102L13.932 51.4566L14.1349 51.4159L14.0324 51.2362L13.9027 51.3102ZM11.4985 51.7923L11.4692 51.6459L11.4692 51.9387L11.4985 51.7923ZM13.8957 52.273L14.0199 52.356L14.1438 52.1705L13.9251 52.1266L13.8957 52.273ZM12.9425 53.7004L12.8183 53.6174L13.04 53.8135L12.9425 53.7004ZM14.2766 52.5497L14.4253 52.5359L14.3984 52.2474L14.179 52.4367L14.2766 52.5497ZM14.6345 56.3951L14.4858 56.409H14.7832L14.6345 56.3951ZM14.976 52.7271L15.0821 52.622L14.857 52.3947L14.8273 52.7133L14.976 52.7271ZM16.085 53.8471L15.9789 53.9522L16.2147 53.7731L16.085 53.8471ZM15.2063 52.3065L15.177 52.1601L14.9741 52.2008L15.0766 52.3805L15.2063 52.3065ZM17.7705 51.7923L17.7999 51.9387V51.6459L17.7705 51.7923ZM15.3236 51.3016L15.1994 51.2186L15.0755 51.4041L15.2942 51.448L15.3236 51.3016ZM16.2043 49.9827L16.3285 50.0656L16.1068 49.8696L16.2043 49.9827ZM14.4858 47.2033L14.8432 51.0423L15.1406 51.0146L14.7832 47.1756L14.4858 47.2033ZM14.4229 51.0742L14.7832 47.2033L14.4858 47.1756L14.1255 51.0465L14.4229 51.0742ZM12.9557 49.941L14.1681 51.1654L14.3803 50.9552L13.168 49.7309L12.9557 49.941ZM14.0324 51.2362L13.1916 49.762L12.9321 49.9099L13.7729 51.3841L14.0324 51.2362ZM11.5279 51.9387L13.932 51.4566L13.8733 51.1637L11.4692 51.6459L11.5279 51.9387ZM13.9251 52.1266L11.5279 51.6459L11.4692 51.9387L13.8664 52.4194L13.9251 52.1266ZM13.0667 53.7833L14.0199 52.356L13.7715 52.1901L12.8183 53.6174L13.0667 53.7833ZM14.179 52.4367L12.845 53.5873L13.04 53.8135L14.3741 52.6628L14.179 52.4367ZM14.7832 56.3813L14.4253 52.5359L14.1279 52.5636L14.4858 56.409L14.7832 56.3813ZM14.8273 52.7133L14.4858 56.3813L14.7832 56.409L15.1247 52.741L14.8273 52.7133ZM16.1911 53.7421L15.0821 52.622L14.8699 52.8322L15.9789 53.9522L16.1911 53.7421ZM15.0766 52.3805L15.9553 53.9211L16.2147 53.7731L15.336 52.2325L15.0766 52.3805ZM17.7412 51.6459L15.177 52.1601L15.2357 52.4529L17.7999 51.9387L17.7412 51.6459ZM15.2942 51.448L17.7412 51.9387L17.7999 51.6459L15.3529 51.1552L15.2942 51.448ZM16.0802 49.8998L15.1994 51.2186L15.4477 51.3845L16.3285 50.0656L16.0802 49.8998ZM15.0894 51.1415L16.3019 50.0958L16.1068 49.8696L14.8944 50.9153L15.0894 51.1415Z" fill="black" mask="url(#path-61-inside-1_148_7650)"/>
<path d="M16.9572 24.8906V26.9805H18.6271V24.8906H19.4865V30.6719H16.0783V24.8906H16.9572ZM16.9572 29.9199H18.6271V27.7129H16.9572V29.9199ZM20.4631 32.4004V24.2461H21.342V27.5078H22.426V24.0801H23.3146V32.8301H22.426V28.2695H21.342V32.4004H20.4631ZM31.5229 24.0898V29.2656H30.5951V28.2012H28.3881V27.4395H30.5951V26.375H28.4809C27.9145 27.7812 26.601 28.7725 24.7064 29.3145L24.3354 28.5918C26.4057 28.001 27.6166 26.8877 27.7826 25.4766H24.7846V24.7148H28.7885C28.7885 25.0371 28.7543 25.3496 28.6957 25.6426H30.5951V24.0898H31.5229ZM25.6928 31.0723C25.6928 30.0127 26.8451 29.3682 28.642 29.3633C30.4145 29.3682 31.5766 30.0127 31.5814 31.0723C31.5766 32.1367 30.4145 32.791 28.642 32.791C26.8451 32.791 25.6928 32.1367 25.6928 31.0723ZM26.6107 31.0723C26.6107 31.6875 27.392 32.0439 28.642 32.0488C29.8676 32.0439 30.6488 31.6875 30.6537 31.0723C30.6488 30.4473 29.8676 30.0908 28.642 30.0957C27.392 30.0908 26.6107 30.4473 26.6107 31.0723ZM35.2146 32V31.2188L37.6658 28.748C38.4422 27.9424 38.8279 27.4932 38.8279 26.873C38.8279 26.1748 38.2615 25.7305 37.5193 25.7305C36.7332 25.7305 36.2352 26.2285 36.2303 26.9805H35.2146C35.2049 25.6865 36.1912 24.832 37.5389 24.832C38.9012 24.832 39.8436 25.6963 39.8533 26.8438C39.8436 27.6348 39.4725 28.2646 38.1443 29.5684L36.7088 31.0234V31.082H39.9705V32H35.2146Z" fill="white"/>
</g>
<rect x="0.5" y="0.5" width="55" height="55" rx="5.5" stroke="#CCF872"/>
<defs>
<linearGradient id="paint0_linear_148_7650" x1="48.4677" y1="7.12158" x2="48.4677" y2="12.5782" gradientUnits="userSpaceOnUse">
<stop stop-color="#3B99F1"/>
<stop offset="1" stop-color="#BBDEFF"/>
</linearGradient>
<radialGradient id="paint1_radial_148_7650" cx="0" cy="0" r="1" gradientUnits="userSpaceOnUse" gradientTransform="translate(1.42043 16.1666) rotate(90) scale(5.90607 4.92238)">
<stop stop-color="white"/>
<stop offset="0.72" stop-color="#07E9BB"/>
<stop offset="1" stop-color="#00E8EE"/>
</radialGradient>
<radialGradient id="paint2_radial_148_7650" cx="0" cy="0" r="1" gradientUnits="userSpaceOnUse" gradientTransform="translate(55.6711 54.406) rotate(-127.45) scale(9.13539 9.16445)">
<stop stop-color="#C6FFCD"/>
<stop offset="0.465" stop-color="#FCFFFC"/>
<stop offset="1" stop-color="#71BAFB"/>
</radialGradient>
<radialGradient id="paint3_radial_148_7650" cx="0" cy="0" r="1" gradientUnits="userSpaceOnUse" gradientTransform="translate(43.3067 51.6289) rotate(134.145) scale(3.53781 3.55309)">
<stop stop-color="#FFEE5C"/>
<stop offset="1" stop-color="#FFAFC7"/>
</radialGradient>
<radialGradient id="paint4_radial_148_7650" cx="0" cy="0" r="1" gradientUnits="userSpaceOnUse" gradientTransform="translate(44.0787 3.44804) rotate(90.4162) scale(3.49599)">
<stop stop-color="white"/>
<stop offset="0.910227" stop-color="#FFA5D4"/>
</radialGradient>
<linearGradient id="paint5_linear_148_7650" x1="14.6345" y1="47.1895" x2="14.6345" y2="56.3951" gradientUnits="userSpaceOnUse">
<stop stop-color="#05FCE1"/>
<stop offset="1" stop-color="white"/>
</linearGradient>
<clipPath id="clip0_148_7650">
<rect width="56" height="56" rx="6" fill="white"/>
</clipPath>
</defs>
</svg>
