<svg width="335" height="360" viewBox="0 0 335 360" fill="none" xmlns="http://www.w3.org/2000/svg">
<g clip-path="url(#clip0_148_6823)">
<path d="M355 -6H-20V369H355V-6Z" fill="#161617"/>
<path d="M59.16 49.0699L41 33.2599L47.85 26.4399L64 44.2599L59.16 49.0699Z" fill="#CCF872" stroke="black" stroke-miterlimit="10"/>
<path d="M30.4104 330.5L14.3604 312.55L22.0004 306.64L35.8104 326.33L30.4104 330.5Z" fill="#CCF872" stroke="black" stroke-miterlimit="10"/>
<path d="M292.6 72.4099L303.75 39.6899L316.52 45.0799L301.63 76.2299L292.6 72.4099Z" fill="url(#paint0_linear_148_6823)" stroke="black" stroke-miterlimit="10"/>
<path d="M13.65 60.1198L-0.43 63.1798L-1.25 57.4598L13.07 56.0698L13.65 60.1198Z" fill="#CCF872" stroke="black" stroke-width="0.6" stroke-miterlimit="10"/>
<path d="M338.78 119.06L322.48 104.86L328.63 98.74L343.13 114.74L338.78 119.06Z" fill="#3B99F1" stroke="black" stroke-miterlimit="10"/>
<path d="M25.4502 339.83L15.3902 347.16L12.7402 342.93L23.5802 336.84L25.4502 339.83Z" fill="#3B99F1" stroke="black" stroke-width="0.58" stroke-miterlimit="10"/>
<path d="M332.13 137.19L319.49 139.94L318.75 134.81L331.61 133.56L332.13 137.19Z" fill="#CCF872" stroke="black" stroke-width="0.54" stroke-miterlimit="10"/>
<path d="M321.03 257.5L331.91 250.49L334.4 255.05L322.79 260.72L321.03 257.5Z" fill="#CCF872" stroke="black" stroke-width="0.54" stroke-miterlimit="10"/>
<path d="M35.6299 76.5C37.5629 76.5 39.1299 74.933 39.1299 73C39.1299 71.067 37.5629 69.5 35.6299 69.5C33.6969 69.5 32.1299 71.067 32.1299 73C32.1299 74.933 33.6969 76.5 35.6299 76.5Z" fill="#3B99F1" stroke="black" stroke-miterlimit="10"/>
<path d="M5.62988 280C6.73445 280 7.62988 279.105 7.62988 278C7.62988 276.895 6.73445 276 5.62988 276C4.52531 276 3.62988 276.895 3.62988 278C3.62988 279.105 4.52531 280 5.62988 280Z" fill="white" stroke="black" stroke-width="0.57" stroke-miterlimit="10"/>
<path d="M4.62988 292C5.18217 292 5.62988 291.552 5.62988 291C5.62988 290.448 5.18217 290 4.62988 290C4.0776 290 3.62988 290.448 3.62988 291C3.62988 291.552 4.0776 292 4.62988 292Z" fill="white" stroke="black" stroke-width="0.29" stroke-miterlimit="10"/>
<path d="M12.1299 287.5C12.6822 287.5 13.1299 287.052 13.1299 286.5C13.1299 285.948 12.6822 285.5 12.1299 285.5C11.5776 285.5 11.1299 285.948 11.1299 286.5C11.1299 287.052 11.5776 287.5 12.1299 287.5Z" fill="white" stroke="black" stroke-width="0.29" stroke-miterlimit="10"/>
<path d="M15.6299 39C16.7345 39 17.6299 38.1046 17.6299 37C17.6299 35.8954 16.7345 35 15.6299 35C14.5253 35 13.6299 35.8954 13.6299 37C13.6299 38.1046 14.5253 39 15.6299 39Z" fill="white" stroke="black" stroke-width="0.57" stroke-miterlimit="10"/>
<path d="M77.1299 18.5C77.6822 18.5 78.1299 18.0523 78.1299 17.5C78.1299 16.9477 77.6822 16.5 77.1299 16.5C76.5776 16.5 76.1299 16.9477 76.1299 17.5C76.1299 18.0523 76.5776 18.5 77.1299 18.5Z" fill="white" stroke="black" stroke-width="0.29" stroke-miterlimit="10"/>
<path d="M37 91.4399C37.5523 91.4399 38 90.9922 38 90.4399C38 89.8877 37.5523 89.4399 37 89.4399C36.4477 89.4399 36 89.8877 36 90.4399C36 90.9922 36.4477 91.4399 37 91.4399Z" fill="white" stroke="black" stroke-width="0.29" stroke-miterlimit="10"/>
<path d="M63.1299 6.5C63.6822 6.5 64.1299 6.05228 64.1299 5.5C64.1299 4.94772 63.6822 4.5 63.1299 4.5C62.5776 4.5 62.1299 4.94772 62.1299 5.5C62.1299 6.05228 62.5776 6.5 63.1299 6.5Z" fill="white" stroke="black" stroke-width="0.29" stroke-miterlimit="10"/>
<path d="M9 193.44C9.55228 193.44 10 192.992 10 192.44C10 191.888 9.55228 191.44 9 191.44C8.44772 191.44 8 191.888 8 192.44C8 192.992 8.44772 193.44 9 193.44Z" fill="white" stroke="black" stroke-width="0.29" stroke-miterlimit="10"/>
<path d="M271 283C271.552 283 272 282.552 272 282C272 281.448 271.552 281 271 281C270.448 281 270 281.448 270 282C270 282.552 270.448 283 271 283Z" fill="white" stroke="black" stroke-width="0.29" stroke-miterlimit="10"/>
<path d="M15 199.44C15.5523 199.44 16 198.992 16 198.44C16 197.888 15.5523 197.44 15 197.44C14.4477 197.44 14 197.888 14 198.44C14 198.992 14.4477 199.44 15 199.44Z" fill="white" stroke="black" stroke-width="0.29" stroke-miterlimit="10"/>
<path d="M277 289C277.552 289 278 288.552 278 288C278 287.448 277.552 287 277 287C276.448 287 276 287.448 276 288C276 288.552 276.448 289 277 289Z" fill="white" stroke="black" stroke-width="0.29" stroke-miterlimit="10"/>
<path d="M59 343.44C59.5523 343.44 60 342.992 60 342.44C60 341.888 59.5523 341.44 59 341.44C58.4477 341.44 58 341.888 58 342.44C58 342.992 58.4477 343.44 59 343.44Z" fill="white" stroke="black" stroke-width="0.29" stroke-miterlimit="10"/>
<path d="M250.13 91.0601C250.682 91.0601 251.13 90.6123 251.13 90.0601C251.13 89.5078 250.682 89.0601 250.13 89.0601C249.578 89.0601 249.13 89.5078 249.13 90.0601C249.13 90.6123 249.578 91.0601 250.13 91.0601Z" fill="white" stroke="black" stroke-width="0.29" stroke-miterlimit="10"/>
<path d="M51 83C51.5523 83 52 82.5523 52 82C52 81.4477 51.5523 81 51 81C50.4477 81 50 81.4477 50 82C50 82.5523 50.4477 83 51 83Z" fill="white" stroke="black" stroke-width="0.29" stroke-miterlimit="10"/>
<path d="M51.1299 294.5C51.6822 294.5 52.1299 294.052 52.1299 293.5C52.1299 292.948 51.6822 292.5 51.1299 292.5C50.5776 292.5 50.1299 292.948 50.1299 293.5C50.1299 294.052 50.5776 294.5 51.1299 294.5Z" fill="white" stroke="black" stroke-width="0.29" stroke-miterlimit="10"/>
<path d="M327.13 28.0601C327.682 28.0601 328.13 27.6123 328.13 27.0601C328.13 26.5078 327.682 26.0601 327.13 26.0601C326.578 26.0601 326.13 26.5078 326.13 27.0601C326.13 27.6123 326.578 28.0601 327.13 28.0601Z" fill="white" stroke="black" stroke-width="0.29" stroke-miterlimit="10"/>
<path d="M73 40.4399C74.6569 40.4399 76 39.0968 76 37.4399C76 35.7831 74.6569 34.4399 73 34.4399C71.3431 34.4399 70 35.7831 70 37.4399C70 39.0968 71.3431 40.4399 73 40.4399Z" fill="white" stroke="black" stroke-width="0.29" stroke-miterlimit="10"/>
<path d="M31 261.44C32.6569 261.44 34 260.097 34 258.44C34 256.783 32.6569 255.44 31 255.44C29.3431 255.44 28 256.783 28 258.44C28 260.097 29.3431 261.44 31 261.44Z" fill="white" stroke="black" stroke-width="0.29" stroke-miterlimit="10"/>
<path d="M62.1299 326.5C63.2345 326.5 64.1299 325.605 64.1299 324.5C64.1299 323.395 63.2345 322.5 62.1299 322.5C61.0253 322.5 60.1299 323.395 60.1299 324.5C60.1299 325.605 61.0253 326.5 62.1299 326.5Z" fill="white" stroke="black" stroke-width="0.57" stroke-miterlimit="10"/>
<path d="M330.13 70.0601C330.682 70.0601 331.13 69.6123 331.13 69.0601C331.13 68.5078 330.682 68.0601 330.13 68.0601C329.578 68.0601 329.13 68.5078 329.13 69.0601C329.13 69.6123 329.578 70.0601 330.13 70.0601Z" fill="white" stroke="black" stroke-width="0.29" stroke-miterlimit="10"/>
<path d="M244 85C244.552 85 245 84.5523 245 84C245 83.4477 244.552 83 244 83C243.448 83 243 83.4477 243 84C243 84.5523 243.448 85 244 85Z" fill="white" stroke="black" stroke-width="0.29" stroke-miterlimit="10"/>
<path d="M328.13 87.0601C328.682 87.0601 329.13 86.6123 329.13 86.0601C329.13 85.5078 328.682 85.0601 328.13 85.0601C327.578 85.0601 327.13 85.5078 327.13 86.0601C327.13 86.6123 327.578 87.0601 328.13 87.0601Z" fill="white" stroke="black" stroke-width="0.29" stroke-miterlimit="10"/>
<path d="M306 261.44C306.552 261.44 307 260.992 307 260.44C307 259.888 306.552 259.44 306 259.44C305.448 259.44 305 259.888 305 260.44C305 260.992 305.448 261.44 306 261.44Z" fill="white" stroke="black" stroke-width="0.29" stroke-miterlimit="10"/>
<path d="M56.5 283.44C57.8807 283.44 59 282.321 59 280.94C59 279.559 57.8807 278.44 56.5 278.44C55.1193 278.44 54 279.559 54 280.94C54 282.321 55.1193 283.44 56.5 283.44Z" fill="#E7FFB5" stroke="black" stroke-width="1.06" stroke-miterlimit="10"/>
<path d="M310.73 247.9C312.79 247.9 314.46 246.23 314.46 244.17C314.46 242.11 312.79 240.44 310.73 240.44C308.67 240.44 307 242.11 307 244.17C307 246.23 308.67 247.9 310.73 247.9Z" fill="#E7FFB5" stroke="black" stroke-width="1.06" stroke-miterlimit="10"/>
<path d="M206.53 14.5601C207.557 14.5601 208.39 13.7273 208.39 12.7001C208.39 11.6728 207.557 10.8401 206.53 10.8401C205.503 10.8401 204.67 11.6728 204.67 12.7001C204.67 13.7273 205.503 14.5601 206.53 14.5601Z" fill="white" stroke="black" stroke-width="0.53" stroke-miterlimit="10"/>
<path d="M223.9 45.26C224.927 45.26 225.76 44.4273 225.76 43.4C225.76 42.3728 224.927 41.54 223.9 41.54C222.873 41.54 222.04 42.3728 222.04 43.4C222.04 44.4273 222.873 45.26 223.9 45.26Z" fill="white" stroke="black" stroke-width="0.53" stroke-miterlimit="10"/>
<path d="M319.86 181.16C320.887 181.16 321.72 180.327 321.72 179.3C321.72 178.273 320.887 177.44 319.86 177.44C318.833 177.44 318 178.273 318 179.3C318 180.327 318.833 181.16 319.86 181.16Z" fill="white" stroke="black" stroke-width="0.53" stroke-miterlimit="10"/>
<path d="M7.94047 139.54C10.2656 139.54 12.1505 137.655 12.1505 135.33C12.1505 133.005 10.2656 131.12 7.94047 131.12C5.61535 131.12 3.73047 133.005 3.73047 135.33C3.73047 137.655 5.61535 139.54 7.94047 139.54Z" fill="white" stroke="black" stroke-width="1.2" stroke-miterlimit="10"/>
<path d="M29.4604 154.45C30.6201 154.45 31.5604 153.51 31.5604 152.35C31.5604 151.19 30.6201 150.25 29.4604 150.25C28.3006 150.25 27.3604 151.19 27.3604 152.35C27.3604 153.51 28.3006 154.45 29.4604 154.45Z" fill="white" stroke="black" stroke-width="0.6" stroke-miterlimit="10"/>
<path d="M30.4105 136.06C31.5703 136.06 32.5105 135.12 32.5105 133.96C32.5105 132.8 31.5703 131.86 30.4105 131.86C29.2507 131.86 28.3105 132.8 28.3105 133.96C28.3105 135.12 29.2507 136.06 30.4105 136.06Z" fill="white" stroke="black" stroke-width="0.6" stroke-miterlimit="10"/>
<path d="M221.63 324C222.734 324 223.63 323.105 223.63 322C223.63 320.895 222.734 320 221.63 320C220.525 320 219.63 320.895 219.63 322C219.63 323.105 220.525 324 221.63 324Z" fill="#CCF872" stroke="black" stroke-width="0.54" stroke-miterlimit="10"/>
<path d="M234.63 341C236.839 341 238.63 339.209 238.63 337C238.63 334.791 236.839 333 234.63 333C232.421 333 230.63 334.791 230.63 337C230.63 339.209 232.421 341 234.63 341Z" fill="white" stroke="black" stroke-width="0.59" stroke-miterlimit="10"/>
<path d="M288.13 285C290.615 285 292.63 282.985 292.63 280.5C292.63 278.015 290.615 276 288.13 276C285.645 276 283.63 278.015 283.63 280.5C283.63 282.985 285.645 285 288.13 285Z" fill="#3B99F1" stroke="black" stroke-width="1.29" stroke-miterlimit="10"/>
<path d="M-4.91002 139.781C-7.42258 123.31 -9.07103 120.811 -10.4802 120.811C-11.8893 120.811 -13.5378 123.31 -16.0504 139.781C-15.5186 128.043 -15.9041 121.422 -18.1641 119.016C-18.8288 118.311 -19.6663 117.953 -20.6501 117.953C-23.6944 117.953 -28.3872 121.356 -35.4728 127.737C-27.2971 118.272 -24.3059 112.808 -25.5821 109.883C-26.2734 108.301 -28.1745 107.53 -31.3916 107.53C-34.2365 107.53 -38.2114 108.142 -43.4492 109.391C-33.173 105.536 -28.4935 103.01 -28.4935 100.245C-28.4935 97.4798 -33.173 94.9673 -43.4492 91.0987C-38.2114 92.3484 -34.2365 92.9599 -31.4049 92.9599C-28.1877 92.9599 -26.2867 92.1888 -25.5954 90.6069C-24.3059 87.6822 -27.2971 82.2184 -35.4728 72.7531C-28.3739 79.1342 -23.6944 82.5374 -20.6501 82.5374C-19.6663 82.5374 -18.8288 82.1785 -18.1641 81.4739C-15.9041 79.0677 -15.5186 72.434 -16.0504 60.7087C-13.5378 77.18 -11.8893 79.6792 -10.4802 79.6792C-9.07103 79.6792 -7.42258 77.18 -4.91002 60.7087C-5.44178 72.4473 -5.05625 79.0677 -2.79628 81.4872C-2.13158 82.1918 -1.29406 82.5507 -0.31031 82.5507C2.73401 82.5507 7.42678 79.1475 14.5125 72.7664C6.33667 82.2317 3.34554 87.6955 4.62176 90.6202C5.31305 92.2021 7.21407 92.9732 10.4312 92.9732C13.2761 92.9732 17.251 92.3617 22.4755 91.112C12.1993 94.9673 7.51983 97.4931 7.51983 100.258C7.51983 103.023 12.1993 105.536 22.4755 109.405C17.2377 108.155 13.2628 107.543 10.4179 107.543C7.20078 107.543 5.29975 108.314 4.60846 109.896C3.31895 112.821 6.31009 118.285 14.4859 127.75C7.3869 121.369 2.70742 117.966 -0.336895 117.966C-1.32065 117.966 -2.15817 118.325 -2.82287 119.029C-5.08284 121.436 -5.46836 128.069 -4.93661 139.808L-4.91002 139.781Z" fill="url(#paint1_radial_148_6823)"/>
<path d="M-15.5051 66.2657C-13.3116 78.7753 -11.8227 80.0515 -10.48 80.0515C-9.13731 80.0515 -7.64839 78.762 -5.45488 66.2657C-5.61441 74.694 -5.00289 79.666 -3.06197 81.7398C-2.3308 82.5242 -1.40023 82.9097 -0.31012 82.9097C2.32209 82.9097 5.95134 80.6232 11.2556 76.1165C5.26005 83.5478 3.14631 88.1076 4.30289 90.7664C5.06064 92.4947 7.06803 93.3322 10.4447 93.3322C12.4521 93.3322 15.0045 93.0264 18.1685 92.4282C10.6574 95.4858 7.18768 97.7458 7.18768 100.258C7.18768 102.771 10.6574 105.044 18.1685 108.088C15.0045 107.477 12.4521 107.184 10.4447 107.184C7.06803 107.184 5.06064 108.022 4.30289 109.75C3.13302 112.409 5.24676 116.969 11.2423 124.4C5.93805 119.88 2.30879 117.594 -0.32341 117.594C-1.41352 117.594 -2.3308 117.992 -3.07526 118.764C-5.01618 120.837 -5.6277 125.823 -5.46817 134.238C-7.66168 121.728 -9.1506 120.452 -10.4933 120.452C-11.836 120.452 -13.3249 121.741 -15.5184 134.238C-15.3589 125.809 -15.9704 120.837 -17.9113 118.764C-18.6425 117.979 -19.5731 117.594 -20.6632 117.594C-23.2954 117.594 -26.9246 119.88 -32.2289 124.387C-26.2333 116.956 -24.1196 112.396 -25.2762 109.737C-26.0339 108.009 -28.0413 107.171 -31.418 107.171C-33.4254 107.171 -35.9778 107.477 -39.1418 108.075C-31.6307 105.018 -28.161 102.758 -28.161 100.245C-28.161 97.7325 -31.6307 95.4592 -39.1418 92.4149C-35.9778 93.0264 -33.4254 93.3189 -31.418 93.3189C-28.0413 93.3189 -26.0339 92.4814 -25.2762 90.7531C-24.1063 88.0944 -26.2201 83.5345 -32.2156 76.1032C-26.9113 80.6231 -23.2821 82.9097 -20.6499 82.9097C-19.5598 82.9097 -18.6425 82.5109 -17.898 81.7398C-15.9571 79.666 -15.3456 74.6807 -15.5051 66.2657ZM-4.0989 52.4399C-6.49181 70.3735 -8.4859 79.3336 -10.48 79.3336C-12.4741 79.3336 -14.4682 70.3735 -16.8611 52.4399C-15.5849 72.9392 -15.7843 82.1918 -20.6499 82.1918C-24.2924 82.1918 -30.5406 76.9939 -40.7238 67.4355C-24.678 84.8506 -21.2747 92.601 -31.4047 92.601C-35.5923 92.601 -42.1063 91.2716 -51 88.7458C-21.4874 99.1815 -21.4874 101.295 -51 111.731C-42.1063 109.205 -35.6056 107.876 -31.4047 107.876C-21.2614 107.876 -24.678 115.639 -40.7238 133.041C-30.5406 123.483 -24.2791 118.285 -20.6499 118.285C-15.7976 118.285 -15.5849 127.538 -16.8611 148.037C-14.4682 130.103 -12.4741 121.143 -10.48 121.143C-8.4859 121.143 -6.49181 130.103 -4.0989 148.037C-5.37512 127.538 -5.17571 118.285 -0.31012 118.285C3.33242 118.285 9.58059 123.483 19.7638 133.041C3.71795 115.626 0.314697 107.876 10.4447 107.876C14.6323 107.876 21.1463 109.205 30.04 111.731C0.527401 101.295 0.527401 99.1815 30.04 88.7458C21.1463 91.2716 14.6456 92.601 10.4447 92.601C0.301403 92.601 3.71795 84.8373 19.7638 67.4355C9.58059 76.9939 3.31913 82.1918 -0.31012 82.1918C-5.16242 82.1918 -5.37512 72.9392 -4.0989 52.4399Z" fill="black"/>
<path d="M371.777 368.262L347.273 351.684L348.389 381.337L334.356 355.224L321.624 382L321.29 352.328L297.631 370.101L311.051 343.671L281.887 348.359L306.001 331.221L278 321.76L307.284 317.847L286.872 296.394L314.613 306.602L306.466 278.079L326.311 300.055L332.291 271L339.694 299.728L358.432 276.79L351.69 305.678L378.901 294.115L359.557 316.549L389 319.005L361.501 329.848L386.433 345.763L357.065 342.531L371.777 368.262Z" fill="url(#paint2_radial_148_6823)" stroke="black" stroke-miterlimit="10"/>
<path d="M281.1 368.82L271.34 362.25L271.79 374L266.2 363.65L261.13 374.27L261 362.5L251.58 369.55L256.92 359.07L245.31 360.93L254.91 354.13L243.76 350.38L255.42 348.83L247.29 340.32L258.34 344.37L255.1 333.06L263 341.78L265.38 330.26L268.32 341.64L275.79 332.55L273.1 344L283.94 339.42L276.24 348.31L287.96 349.29L277.01 353.59L286.94 359.9L275.24 358.62L281.1 368.82Z" fill="url(#paint3_radial_148_6823)" stroke="black" stroke-miterlimit="10"/>
<path d="M266.63 324.86L261.09 321.14L261.35 327.8L258.18 321.93L255.31 327.95L255.23 321.28L249.89 325.27L252.92 319.33L246.33 320.39L251.78 316.54L245.46 314.41L252.07 313.53L247.46 308.71L253.72 311L251.88 304.59L256.36 309.53L257.71 303L259.38 309.46L263.61 304.3L262.09 310.79L268.23 308.19L263.87 313.24L270.51 313.79L264.31 316.23L269.93 319.8L263.31 319.08L266.63 324.86Z" fill="white" stroke="black" stroke-width="0.12" stroke-miterlimit="10"/>
<path d="M320.26 15.09C284.08 15.09 275.17 24 275.17 60.18C275.17 24 266.26 15.09 230.08 15.09C266.26 15.09 275.17 6.18 275.17 -30C275.17 6.18 284.08 15.09 320.26 15.09Z" fill="url(#paint4_radial_148_6823)"/>
<path d="M320.26 15.09C284.08 15.09 275.17 24 275.17 60.18C275.17 24 266.26 15.09 230.08 15.09C266.26 15.09 275.17 6.18 275.17 -30C275.17 6.18 284.08 15.09 320.26 15.09Z" stroke="#020202" stroke-width="2.23" stroke-miterlimit="10"/>
<path d="M253.08 33.0899C241.11 33.0899 238.16 36.0399 238.16 48.0099C238.16 36.0399 235.21 33.0899 223.24 33.0899C235.21 33.0899 238.16 30.1399 238.16 18.1699C238.16 30.1399 241.11 33.0899 253.08 33.0899Z" fill="#FFABC0"/>
<path d="M253.08 33.0899C241.11 33.0899 238.16 36.0399 238.16 48.0099C238.16 36.0399 235.21 33.0899 223.24 33.0899C235.21 33.0899 238.16 30.1399 238.16 18.1699C238.16 30.1399 241.11 33.0899 253.08 33.0899Z" stroke="#020202" stroke-width="0.74" stroke-miterlimit="10"/>
<path d="M9.66854 5.4022L9.79507 6.74066L10.5739 5.64479L20.8437 -8.80603L13.4639 7.31332L12.9042 8.53573L14.1266 7.97608L30.246 0.59622L15.7952 10.8661L14.6993 11.6449L16.0377 11.7714L33.6874 13.4399L16.0377 15.1085L14.6993 15.235L15.7952 16.0138L30.246 26.2837L14.1266 18.9038L12.9042 18.3442L13.4639 19.5666L20.8437 35.6859L10.5739 21.2351L9.79507 20.1392L9.66854 21.4777L8 39.1274L6.33146 21.4777L6.20493 20.1392L5.42612 21.2351L-4.84372 35.6859L2.53614 19.5666L3.09579 18.3442L1.87338 18.9038L-14.246 26.2837L0.204845 16.0138L1.30072 15.235L-0.0377407 15.1085L-17.6874 13.4399L-0.0377407 11.7714L1.30072 11.6449L0.204845 10.8661L-14.246 0.596222L1.87338 7.97608L3.09579 8.53573L2.53614 7.31332L-4.84372 -8.80603L5.42612 5.64479L6.20493 6.74066L6.33146 5.4022L8 -12.2475L9.66854 5.4022Z" fill="#6DFF6E" stroke="black"/>
<mask id="path-57-inside-1_148_6823" fill="white">
<path fill-rule="evenodd" clip-rule="evenodd" d="M80.3931 333.707L78 308L75.587 333.921L67.4683 325.722L73.0989 335.594L57 338.823L73.0524 342.042L66.6692 351.6L75.6029 343.895L78 369.645L80.2865 345.083L87.7127 352.583L81.8287 342.266L99 338.823L82.6138 335.536L88.5119 326.705L80.3931 333.707Z"/>
</mask>
<path fill-rule="evenodd" clip-rule="evenodd" d="M80.3931 333.707L78 308L75.587 333.921L67.4683 325.722L73.0989 335.594L57 338.823L73.0524 342.042L66.6692 351.6L75.6029 343.895L78 369.645L80.2865 345.083L87.7127 352.583L81.8287 342.266L99 338.823L82.6138 335.536L88.5119 326.705L80.3931 333.707Z" fill="url(#paint5_linear_148_6823)"/>
<path d="M78 308L78.9957 307.907L77.0043 307.907L78 308ZM80.3931 333.707L79.3974 333.8L79.5772 335.731L81.0462 334.464L80.3931 333.707ZM75.587 333.921L74.8764 334.625L76.3841 336.147L76.5827 334.014L75.587 333.921ZM67.4683 325.722L68.1789 325.018L66.5997 326.217L67.4683 325.722ZM73.0989 335.594L73.2955 336.575L74.6539 336.302L73.9675 335.099L73.0989 335.594ZM57 338.823L56.8034 337.842L56.8034 339.803L57 338.823ZM73.0524 342.042L73.884 342.597L74.7135 341.355L73.249 341.061L73.0524 342.042ZM66.6692 351.6L65.8376 351.045L67.3223 352.357L66.6692 351.6ZM75.6029 343.895L76.5986 343.802L76.4188 341.87L74.9497 343.137L75.6029 343.895ZM78 369.645L77.0043 369.738H78.9957L78 369.645ZM80.2865 345.083L80.9971 344.379L79.4894 342.857L79.2908 344.99L80.2865 345.083ZM87.7127 352.583L87.0022 353.286L88.5814 352.087L87.7127 352.583ZM81.8287 342.266L81.6321 341.286L80.2737 341.558L80.9601 342.762L81.8287 342.266ZM99 338.823L99.1966 339.803V337.842L99 338.823ZM82.6138 335.536L81.7822 334.981L80.9526 336.223L82.4172 336.517L82.6138 335.536ZM88.5119 326.705L89.3435 327.26L87.8587 325.947L88.5119 326.705ZM77.0043 308.093L79.3974 333.8L81.3888 333.615L78.9957 307.907L77.0043 308.093ZM76.5827 334.014L78.9957 308.093L77.0043 307.907L74.5913 333.828L76.5827 334.014ZM66.7577 326.426L74.8764 334.625L76.2976 333.218L68.1789 325.018L66.7577 326.426ZM73.9675 335.099L68.337 325.227L66.5997 326.217L72.2302 336.09L73.9675 335.099ZM57.1966 339.803L73.2955 336.575L72.9022 334.614L56.8034 337.842L57.1966 339.803ZM73.249 341.061L57.1966 337.842L56.8034 339.803L72.8558 343.022L73.249 341.061ZM67.5008 352.155L73.884 342.597L72.2208 341.486L65.8376 351.045L67.5008 352.155ZM74.9497 343.137L66.0161 350.843L67.3223 352.357L76.256 344.652L74.9497 343.137ZM78.9957 369.552L76.5986 343.802L74.6072 343.987L77.0043 369.738L78.9957 369.552ZM79.2908 344.99L77.0043 369.552L78.9957 369.738L81.2822 345.175L79.2908 344.99ZM88.4233 351.879L80.9971 344.379L79.5759 345.786L87.0022 353.286L88.4233 351.879ZM80.9601 342.762L86.8441 353.078L88.5814 352.087L82.6974 341.771L80.9601 342.762ZM98.8034 337.842L81.6321 341.286L82.0254 343.247L99.1966 339.803L98.8034 337.842ZM82.4172 336.517L98.8034 339.803L99.1966 337.842L82.8104 334.556L82.4172 336.517ZM87.6803 326.149L81.7822 334.981L83.4454 336.092L89.3435 327.26L87.6803 326.149ZM81.0462 334.464L89.165 327.462L87.8587 325.947L79.74 332.95L81.0462 334.464Z" fill="black" mask="url(#path-57-inside-1_148_6823)"/>
</g>
<rect x="0.5" y="0.5" width="334" height="359" rx="7.5" stroke="#75777F"/>
<defs>
<linearGradient id="paint0_linear_148_6823" x1="304.56" y1="39.6899" x2="304.56" y2="76.2299" gradientUnits="userSpaceOnUse">
<stop stop-color="#3B99F1"/>
<stop offset="1" stop-color="#BBDEFF"/>
</linearGradient>
<radialGradient id="paint1_radial_148_6823" cx="0" cy="0" r="1" gradientUnits="userSpaceOnUse" gradientTransform="translate(-10.4868 100.258) rotate(90) scale(39.5495 32.9624)">
<stop stop-color="white"/>
<stop offset="0.72" stop-color="#07E9BB"/>
<stop offset="1" stop-color="#00E8EE"/>
</radialGradient>
<radialGradient id="paint2_radial_148_6823" cx="0" cy="0" r="1" gradientUnits="userSpaceOnUse" gradientTransform="translate(352.797 356.326) rotate(-127.45) scale(61.1745 61.3691)">
<stop stop-color="#C6FFCD"/>
<stop offset="0.465" stop-color="#FCFFFC"/>
<stop offset="1" stop-color="#71BAFB"/>
</radialGradient>
<radialGradient id="paint3_radial_148_6823" cx="0" cy="0" r="1" gradientUnits="userSpaceOnUse" gradientTransform="translate(270 337.73) rotate(134.145) scale(23.6907 23.793)">
<stop stop-color="#FFEE5C"/>
<stop offset="1" stop-color="#FFAFC7"/>
</radialGradient>
<radialGradient id="paint4_radial_148_6823" cx="0" cy="0" r="1" gradientUnits="userSpaceOnUse" gradientTransform="translate(275.17 15.09) rotate(90.4162) scale(23.4106 23.4106)">
<stop stop-color="white"/>
<stop offset="0.910227" stop-color="#FFA5D4"/>
</radialGradient>
<linearGradient id="paint5_linear_148_6823" x1="78" y1="308" x2="78" y2="369.645" gradientUnits="userSpaceOnUse">
<stop stop-color="#05FCE1"/>
<stop offset="1" stop-color="white"/>
</linearGradient>
<clipPath id="clip0_148_6823">
<rect width="335" height="360" rx="8" fill="white"/>
</clipPath>
</defs>
</svg>
