<svg width="12" height="12" viewBox="0 0 12 12" fill="none" xmlns="http://www.w3.org/2000/svg">
<rect width="12" height="12" rx="6" fill="white"/>
<path d="M5.93652 9.58398C4.59863 9.58398 3.59277 8.76855 3.54395 7.64062H4.58887C4.64746 8.24121 5.22363 8.68066 5.93652 8.68555C6.7959 8.68066 7.41113 8.06055 7.41113 7.2207C7.41113 6.36133 6.77637 5.73633 5.8877 5.72656C5.32129 5.72656 4.88672 5.91699 4.64746 6.35156H3.63184L4.09082 2.41602H8.09473V3.33398H4.97949L4.74512 5.31641H4.81348C5.10645 5.0332 5.60449 4.84277 6.1416 4.83789C7.47461 4.84277 8.45605 5.8291 8.45605 7.19141C8.45605 8.58301 7.41113 9.58398 5.93652 9.58398Z" fill="black"/>
</svg>
