<svg width="12" height="12" viewBox="0 0 12 12" fill="none" xmlns="http://www.w3.org/2000/svg">
<rect width="12" height="12" rx="6" fill="white"/>
<path d="M6 9.63281C4.53516 9.63281 3.49512 8.84668 3.45117 7.68945H4.54492C4.58398 8.30957 5.19922 8.70508 5.99023 8.70508C6.84473 8.70508 7.46484 8.24121 7.46484 7.55273C7.46484 6.85449 6.88379 6.35645 5.87305 6.35156H5.26758V5.47266H5.87305C6.67871 5.47754 7.24023 5.02832 7.24023 4.34961C7.24023 3.70508 6.75684 3.26562 6.00977 3.26562C5.30176 3.26562 4.66699 3.66113 4.64258 4.30078H3.60742C3.63672 3.14844 4.70117 2.36719 6.01953 2.36719C7.41113 2.36719 8.28516 3.24609 8.27539 4.29102C8.28516 5.09668 7.78711 5.67285 7.02539 5.86328V5.91211C7.99219 6.04883 8.55371 6.69824 8.54883 7.5918C8.55371 8.76855 7.46484 9.63281 6 9.63281Z" fill="black"/>
</svg>
