<svg width="375" height="375" viewBox="0 0 375 375" fill="none" xmlns="http://www.w3.org/2000/svg">
<g clip-path="url(#clip0_148_6518)">
<path d="M375 0H0V375H375V0Z" fill="#161617"/>
<path d="M79.16 57.0699L61 41.2599L67.85 34.4399L84 52.2599L79.16 57.0699Z" fill="#CCF872" stroke="black" stroke-miterlimit="10"/>
<path d="M50.4104 338.5L34.3604 320.55L42.0004 314.64L55.8104 334.33L50.4104 338.5Z" fill="#CCF872" stroke="black" stroke-miterlimit="10"/>
<path d="M312.6 80.4099L323.75 47.6899L336.52 53.0799L321.63 84.2299L312.6 80.4099Z" fill="url(#paint0_linear_148_6518)" stroke="black" stroke-miterlimit="10"/>
<path d="M33.65 68.1198L19.57 71.1798L18.75 65.4598L33.07 64.0698L33.65 68.1198Z" fill="#CCF872" stroke="black" stroke-width="0.6" stroke-miterlimit="10"/>
<path d="M358.78 127.06L342.48 112.86L348.63 106.74L363.13 122.74L358.78 127.06Z" fill="#3B99F1" stroke="black" stroke-miterlimit="10"/>
<path d="M357.22 273.28L362.3 252.27L370.56 254.9L363.06 275.15L357.22 273.28Z" fill="#3B99F1" stroke="black" stroke-miterlimit="10"/>
<path d="M45.4502 347.83L35.3902 355.16L32.7402 350.93L43.5802 344.84L45.4502 347.83Z" fill="#3B99F1" stroke="black" stroke-width="0.58" stroke-miterlimit="10"/>
<path d="M352.13 145.19L339.49 147.94L338.75 142.81L351.61 141.56L352.13 145.19Z" fill="#CCF872" stroke="black" stroke-width="0.54" stroke-miterlimit="10"/>
<path d="M341.03 265.5L351.91 258.49L354.4 263.05L342.79 268.72L341.03 265.5Z" fill="#CCF872" stroke="black" stroke-width="0.54" stroke-miterlimit="10"/>
<path d="M55.6299 84.5C57.5629 84.5 59.1299 82.933 59.1299 81C59.1299 79.067 57.5629 77.5 55.6299 77.5C53.6969 77.5 52.1299 79.067 52.1299 81C52.1299 82.933 53.6969 84.5 55.6299 84.5Z" fill="#3B99F1" stroke="black" stroke-miterlimit="10"/>
<path d="M25.6299 288C26.7345 288 27.6299 287.105 27.6299 286C27.6299 284.895 26.7345 284 25.6299 284C24.5253 284 23.6299 284.895 23.6299 286C23.6299 287.105 24.5253 288 25.6299 288Z" fill="white" stroke="black" stroke-width="0.57" stroke-miterlimit="10"/>
<path d="M24.6299 300C25.1822 300 25.6299 299.552 25.6299 299C25.6299 298.448 25.1822 298 24.6299 298C24.0776 298 23.6299 298.448 23.6299 299C23.6299 299.552 24.0776 300 24.6299 300Z" fill="white" stroke="black" stroke-width="0.29" stroke-miterlimit="10"/>
<path d="M32.1299 295.5C32.6822 295.5 33.1299 295.052 33.1299 294.5C33.1299 293.948 32.6822 293.5 32.1299 293.5C31.5776 293.5 31.1299 293.948 31.1299 294.5C31.1299 295.052 31.5776 295.5 32.1299 295.5Z" fill="white" stroke="black" stroke-width="0.29" stroke-miterlimit="10"/>
<path d="M35.6299 47C36.7345 47 37.6299 46.1046 37.6299 45C37.6299 43.8954 36.7345 43 35.6299 43C34.5253 43 33.6299 43.8954 33.6299 45C33.6299 46.1046 34.5253 47 35.6299 47Z" fill="white" stroke="black" stroke-width="0.57" stroke-miterlimit="10"/>
<path d="M97.1299 26.5C97.6822 26.5 98.1299 26.0523 98.1299 25.5C98.1299 24.9477 97.6822 24.5 97.1299 24.5C96.5776 24.5 96.1299 24.9477 96.1299 25.5C96.1299 26.0523 96.5776 26.5 97.1299 26.5Z" fill="white" stroke="black" stroke-width="0.29" stroke-miterlimit="10"/>
<path d="M57 99.4399C57.5523 99.4399 58 98.9922 58 98.4399C58 97.8877 57.5523 97.4399 57 97.4399C56.4477 97.4399 56 97.8877 56 98.4399C56 98.9922 56.4477 99.4399 57 99.4399Z" fill="white" stroke="black" stroke-width="0.29" stroke-miterlimit="10"/>
<path d="M12 265.44C12.5523 265.44 13 264.992 13 264.44C13 263.888 12.5523 263.44 12 263.44C11.4477 263.44 11 263.888 11 264.44C11 264.992 11.4477 265.44 12 265.44Z" fill="white" stroke="black" stroke-width="0.29" stroke-miterlimit="10"/>
<path d="M83.1299 14.5C83.6822 14.5 84.1299 14.0523 84.1299 13.5C84.1299 12.9477 83.6822 12.5 83.1299 12.5C82.5776 12.5 82.1299 12.9477 82.1299 13.5C82.1299 14.0523 82.5776 14.5 83.1299 14.5Z" fill="white" stroke="black" stroke-width="0.29" stroke-miterlimit="10"/>
<path d="M29 201.44C29.5523 201.44 30 200.992 30 200.44C30 199.888 29.5523 199.44 29 199.44C28.4477 199.44 28 199.888 28 200.44C28 200.992 28.4477 201.44 29 201.44Z" fill="white" stroke="black" stroke-width="0.29" stroke-miterlimit="10"/>
<path d="M291 291C291.552 291 292 290.552 292 290C292 289.448 291.552 289 291 289C290.448 289 290 289.448 290 290C290 290.552 290.448 291 291 291Z" fill="white" stroke="black" stroke-width="0.29" stroke-miterlimit="10"/>
<path d="M35 207.44C35.5523 207.44 36 206.992 36 206.44C36 205.888 35.5523 205.44 35 205.44C34.4477 205.44 34 205.888 34 206.44C34 206.992 34.4477 207.44 35 207.44Z" fill="white" stroke="black" stroke-width="0.29" stroke-miterlimit="10"/>
<path d="M297 297C297.552 297 298 296.552 298 296C298 295.448 297.552 295 297 295C296.448 295 296 295.448 296 296C296 296.552 296.448 297 297 297Z" fill="white" stroke="black" stroke-width="0.29" stroke-miterlimit="10"/>
<path d="M79 351.44C79.5523 351.44 80 350.992 80 350.44C80 349.888 79.5523 349.44 79 349.44C78.4477 349.44 78 349.888 78 350.44C78 350.992 78.4477 351.44 79 351.44Z" fill="white" stroke="black" stroke-width="0.29" stroke-miterlimit="10"/>
<path d="M270.13 99.0601C270.682 99.0601 271.13 98.6123 271.13 98.0601C271.13 97.5078 270.682 97.0601 270.13 97.0601C269.578 97.0601 269.13 97.5078 269.13 98.0601C269.13 98.6123 269.578 99.0601 270.13 99.0601Z" fill="white" stroke="black" stroke-width="0.29" stroke-miterlimit="10"/>
<path d="M71 91C71.5523 91 72 90.5523 72 90C72 89.4477 71.5523 89 71 89C70.4477 89 70 89.4477 70 90C70 90.5523 70.4477 91 71 91Z" fill="white" stroke="black" stroke-width="0.29" stroke-miterlimit="10"/>
<path d="M71.1299 302.5C71.6822 302.5 72.1299 302.052 72.1299 301.5C72.1299 300.948 71.6822 300.5 71.1299 300.5C70.5776 300.5 70.1299 300.948 70.1299 301.5C70.1299 302.052 70.5776 302.5 71.1299 302.5Z" fill="white" stroke="black" stroke-width="0.29" stroke-miterlimit="10"/>
<path d="M347.13 36.0601C347.682 36.0601 348.13 35.6123 348.13 35.0601C348.13 34.5078 347.682 34.0601 347.13 34.0601C346.578 34.0601 346.13 34.5078 346.13 35.0601C346.13 35.6123 346.578 36.0601 347.13 36.0601Z" fill="white" stroke="black" stroke-width="0.29" stroke-miterlimit="10"/>
<path d="M93 48.4399C94.6569 48.4399 96 47.0968 96 45.4399C96 43.7831 94.6569 42.4399 93 42.4399C91.3431 42.4399 90 43.7831 90 45.4399C90 47.0968 91.3431 48.4399 93 48.4399Z" fill="white" stroke="black" stroke-width="0.29" stroke-miterlimit="10"/>
<path d="M51 269.44C52.6569 269.44 54 268.097 54 266.44C54 264.783 52.6569 263.44 51 263.44C49.3431 263.44 48 264.783 48 266.44C48 268.097 49.3431 269.44 51 269.44Z" fill="white" stroke="black" stroke-width="0.29" stroke-miterlimit="10"/>
<path d="M82.1299 334.5C83.2345 334.5 84.1299 333.605 84.1299 332.5C84.1299 331.395 83.2345 330.5 82.1299 330.5C81.0253 330.5 80.1299 331.395 80.1299 332.5C80.1299 333.605 81.0253 334.5 82.1299 334.5Z" fill="white" stroke="black" stroke-width="0.57" stroke-miterlimit="10"/>
<path d="M350.13 78.0601C350.682 78.0601 351.13 77.6123 351.13 77.0601C351.13 76.5078 350.682 76.0601 350.13 76.0601C349.578 76.0601 349.13 76.5078 349.13 77.0601C349.13 77.6123 349.578 78.0601 350.13 78.0601Z" fill="white" stroke="black" stroke-width="0.29" stroke-miterlimit="10"/>
<path d="M357 162.44C357.552 162.44 358 161.992 358 161.44C358 160.888 357.552 160.44 357 160.44C356.448 160.44 356 160.888 356 161.44C356 161.992 356.448 162.44 357 162.44Z" fill="white" stroke="black" stroke-width="0.29" stroke-miterlimit="10"/>
<path d="M264 93C264.552 93 265 92.5523 265 92C265 91.4477 264.552 91 264 91C263.448 91 263 91.4477 263 92C263 92.5523 263.448 93 264 93Z" fill="white" stroke="black" stroke-width="0.29" stroke-miterlimit="10"/>
<path d="M348.13 95.0601C348.682 95.0601 349.13 94.6123 349.13 94.0601C349.13 93.5078 348.682 93.0601 348.13 93.0601C347.578 93.0601 347.13 93.5078 347.13 94.0601C347.13 94.6123 347.578 95.0601 348.13 95.0601Z" fill="white" stroke="black" stroke-width="0.29" stroke-miterlimit="10"/>
<path d="M326 269.44C326.552 269.44 327 268.992 327 268.44C327 267.888 326.552 267.44 326 267.44C325.448 267.44 325 267.888 325 268.44C325 268.992 325.448 269.44 326 269.44Z" fill="white" stroke="black" stroke-width="0.29" stroke-miterlimit="10"/>
<path d="M76.5 291.44C77.8807 291.44 79 290.321 79 288.94C79 287.559 77.8807 286.44 76.5 286.44C75.1193 286.44 74 287.559 74 288.94C74 290.321 75.1193 291.44 76.5 291.44Z" fill="#E7FFB5" stroke="black" stroke-width="1.06" stroke-miterlimit="10"/>
<path d="M330.73 255.9C332.79 255.9 334.46 254.23 334.46 252.17C334.46 250.11 332.79 248.44 330.73 248.44C328.67 248.44 327 250.11 327 252.17C327 254.23 328.67 255.9 330.73 255.9Z" fill="#E7FFB5" stroke="black" stroke-width="1.06" stroke-miterlimit="10"/>
<path d="M226.53 22.5601C227.557 22.5601 228.39 21.7273 228.39 20.7001C228.39 19.6728 227.557 18.8401 226.53 18.8401C225.503 18.8401 224.67 19.6728 224.67 20.7001C224.67 21.7273 225.503 22.5601 226.53 22.5601Z" fill="white" stroke="black" stroke-width="0.53" stroke-miterlimit="10"/>
<path d="M243.9 53.26C244.927 53.26 245.76 52.4273 245.76 51.4C245.76 50.3728 244.927 49.54 243.9 49.54C242.873 49.54 242.04 50.3728 242.04 51.4C242.04 52.4273 242.873 53.26 243.9 53.26Z" fill="white" stroke="black" stroke-width="0.53" stroke-miterlimit="10"/>
<path d="M339.86 189.16C340.887 189.16 341.72 188.327 341.72 187.3C341.72 186.273 340.887 185.44 339.86 185.44C338.833 185.44 338 186.273 338 187.3C338 188.327 338.833 189.16 339.86 189.16Z" fill="white" stroke="black" stroke-width="0.53" stroke-miterlimit="10"/>
<path d="M27.94 147.54C30.2651 147.54 32.15 145.655 32.15 143.33C32.15 141.005 30.2651 139.12 27.94 139.12C25.6149 139.12 23.73 141.005 23.73 143.33C23.73 145.655 25.6149 147.54 27.94 147.54Z" fill="white" stroke="black" stroke-width="1.2" stroke-miterlimit="10"/>
<path d="M49.4599 162.45C50.6197 162.45 51.5599 161.51 51.5599 160.35C51.5599 159.19 50.6197 158.25 49.4599 158.25C48.3001 158.25 47.3599 159.19 47.3599 160.35C47.3599 161.51 48.3001 162.45 49.4599 162.45Z" fill="white" stroke="black" stroke-width="0.6" stroke-miterlimit="10"/>
<path d="M50.4101 144.06C51.5699 144.06 52.5101 143.12 52.5101 141.96C52.5101 140.8 51.5699 139.86 50.4101 139.86C49.2503 139.86 48.3101 140.8 48.3101 141.96C48.3101 143.12 49.2503 144.06 50.4101 144.06Z" fill="white" stroke="black" stroke-width="0.6" stroke-miterlimit="10"/>
<path d="M361.13 144.56C363.615 144.56 365.63 142.545 365.63 140.06C365.63 137.575 363.615 135.56 361.13 135.56C358.645 135.56 356.63 137.575 356.63 140.06C356.63 142.545 358.645 144.56 361.13 144.56Z" fill="#3B99F1" stroke="black" stroke-width="1.29" stroke-miterlimit="10"/>
<path d="M241.63 332C242.734 332 243.63 331.105 243.63 330C243.63 328.895 242.734 328 241.63 328C240.525 328 239.63 328.895 239.63 330C239.63 331.105 240.525 332 241.63 332Z" fill="#CCF872" stroke="black" stroke-width="0.54" stroke-miterlimit="10"/>
<path d="M254.63 349C256.839 349 258.63 347.209 258.63 345C258.63 342.791 256.839 341 254.63 341C252.421 341 250.63 342.791 250.63 345C250.63 347.209 252.421 349 254.63 349Z" fill="white" stroke="black" stroke-width="0.59" stroke-miterlimit="10"/>
<path d="M308.13 293C310.615 293 312.63 290.985 312.63 288.5C312.63 286.015 310.615 284 308.13 284C305.645 284 303.63 286.015 303.63 288.5C303.63 290.985 305.645 293 308.13 293Z" fill="#3B99F1" stroke="black" stroke-width="1.29" stroke-miterlimit="10"/>
<path d="M15.09 147.781C12.5774 131.31 10.929 128.811 9.51981 128.811C8.11065 128.811 6.4622 131.31 3.94964 147.781C4.4814 136.043 4.09587 129.422 1.8359 127.016C1.1712 126.311 0.333681 125.953 -0.650072 125.953C-3.69439 125.953 -8.38716 129.356 -15.4728 135.737C-7.29705 126.272 -4.30591 120.808 -5.58213 117.883C-6.27342 116.301 -8.17445 115.53 -11.3916 115.53C-14.2365 115.53 -18.2114 116.142 -23.4492 117.391C-13.173 113.536 -8.49351 111.01 -8.49351 108.245C-8.49351 105.48 -13.173 102.967 -23.4492 99.0987C-18.2114 100.348 -14.2365 100.96 -11.4049 100.96C-8.18775 100.96 -6.28671 100.189 -5.59542 98.6069C-4.30591 95.6822 -7.29705 90.2184 -15.4728 80.7531C-8.37386 87.1342 -3.69439 90.5374 -0.650072 90.5374C0.333681 90.5374 1.1712 90.1785 1.8359 89.4739C4.09587 87.0677 4.4814 80.434 3.94964 68.7087C6.4622 85.18 8.11065 87.6792 9.51981 87.6792C10.929 87.6792 12.5774 85.18 15.09 68.7087C14.5582 80.4473 14.9437 87.0677 17.2037 89.4872C17.8684 90.1918 18.7059 90.5507 19.6897 90.5507C22.734 90.5507 27.4268 87.1475 34.5125 80.7664C26.3367 90.2317 23.3455 95.6955 24.6218 98.6202C25.313 100.202 27.2141 100.973 30.4312 100.973C33.2761 100.973 37.251 100.362 42.4755 99.112C32.1993 102.967 27.5198 105.493 27.5198 108.258C27.5198 111.023 32.1993 113.536 42.4755 117.405C37.2377 116.155 33.2628 115.543 30.4179 115.543C27.2008 115.543 25.2997 116.314 24.6085 117.896C23.3189 120.821 26.3101 126.285 34.4859 135.75C27.3869 129.369 22.7074 125.966 19.6631 125.966C18.6794 125.966 17.8418 126.325 17.1771 127.029C14.9172 129.436 14.5316 136.069 15.0634 147.808L15.09 147.781Z" fill="url(#paint1_radial_148_6518)"/>
<path d="M4.49488 74.2657C6.68839 86.7753 8.17731 88.0515 9.52 88.0515C10.8627 88.0515 12.3516 86.762 14.5451 74.2657C14.3856 82.694 14.9971 87.666 16.938 89.7398C17.6692 90.5242 18.5998 90.9097 19.6899 90.9097C22.3221 90.9097 25.9513 88.6232 31.2556 84.1165C25.2601 91.5478 23.1463 96.1076 24.3029 98.7664C25.0606 100.495 27.068 101.332 30.4447 101.332C32.4521 101.332 35.0045 101.026 38.1685 100.428C30.6574 103.486 27.1877 105.746 27.1877 108.258C27.1877 110.771 30.6574 113.044 38.1685 116.088C35.0045 115.477 32.4521 115.184 30.4447 115.184C27.068 115.184 25.0606 116.022 24.3029 117.75C23.133 120.409 25.2468 124.969 31.2423 132.4C25.938 127.88 22.3088 125.594 19.6766 125.594C18.5865 125.594 17.6692 125.992 16.9247 126.764C14.9838 128.837 14.3723 133.823 14.5318 142.238C12.3383 129.728 10.8494 128.452 9.50671 128.452C8.16402 128.452 6.67509 129.741 4.48159 142.238C4.64112 133.809 4.02959 128.837 2.08868 126.764C1.35751 125.979 0.426929 125.594 -0.663176 125.594C-3.29538 125.594 -6.92463 127.88 -12.2289 132.387C-6.23335 124.956 -4.1196 120.396 -5.27618 117.737C-6.03394 116.009 -8.04132 115.171 -11.418 115.171C-13.4254 115.171 -15.9778 115.477 -19.1418 116.075C-11.6307 113.018 -8.16097 110.758 -8.16097 108.245C-8.16097 105.732 -11.6307 103.459 -19.1418 100.415C-15.9778 101.026 -13.4254 101.319 -11.418 101.319C-8.04132 101.319 -6.03394 100.481 -5.27618 98.7531C-4.10631 96.0944 -6.22005 91.5345 -12.2156 84.1032C-6.91134 88.6231 -3.28209 90.9097 -0.649881 90.9097C0.440224 90.9097 1.35751 90.5109 2.10197 89.7398C4.04289 87.666 4.65441 82.6807 4.49488 74.2657ZM15.9011 60.4399C13.5082 78.3735 11.5141 87.3336 9.52 87.3336C7.52591 87.3336 5.53181 78.3735 3.1389 60.4399C4.41512 80.9392 4.21571 90.1918 -0.649881 90.1918C-4.29243 90.1918 -10.5406 84.9939 -20.7238 75.4355C-4.67795 92.8506 -1.2747 100.601 -11.4047 100.601C-15.5923 100.601 -22.1063 99.2716 -31 96.7458C-1.4874 107.182 -1.4874 109.295 -31 119.731C-22.1063 117.205 -15.6056 115.876 -11.4047 115.876C-1.2614 115.876 -4.67795 123.639 -20.7238 141.041C-10.5406 131.483 -4.27913 126.285 -0.649881 126.285C4.20242 126.285 4.41512 135.538 3.1389 156.037C5.53181 138.103 7.52591 129.143 9.52 129.143C11.5141 129.143 13.5082 138.103 15.9011 156.037C14.6249 135.538 14.8243 126.285 19.6899 126.285C23.3324 126.285 29.5806 131.483 39.7638 141.041C23.718 123.626 20.3147 115.876 30.4447 115.876C34.6323 115.876 41.1463 117.205 50.04 119.731C20.5274 109.295 20.5274 107.182 50.04 96.7458C41.1463 99.2716 34.6456 100.601 30.4447 100.601C20.3014 100.601 23.718 92.8373 39.7638 75.4355C29.5806 84.9939 23.3191 90.1918 19.6899 90.1918C14.8376 90.1918 14.6249 80.9392 15.9011 60.4399Z" fill="black"/>
<path d="M391.777 376.262L367.273 359.684L368.389 389.337L354.356 363.224L341.624 390L341.29 360.328L317.631 378.101L331.051 351.671L301.887 356.359L326.001 339.221L298 329.76L327.284 325.847L306.872 304.394L334.613 314.602L326.466 286.079L346.311 308.055L352.291 279L359.694 307.728L378.432 284.79L371.69 313.678L398.901 302.115L379.557 324.549L409 327.005L381.501 337.848L406.433 353.763L377.065 350.531L391.777 376.262Z" fill="url(#paint2_radial_148_6518)" stroke="black" stroke-miterlimit="10"/>
<path d="M301.1 376.82L291.34 370.25L291.79 382L286.2 371.65L281.13 382.27L281 370.5L271.58 377.55L276.92 367.07L265.31 368.93L274.91 362.13L263.76 358.38L275.42 356.83L267.29 348.32L278.34 352.37L275.1 341.06L283 349.78L285.38 338.26L288.32 349.64L295.79 340.55L293.1 352L303.94 347.42L296.24 356.31L307.96 357.29L297.01 361.59L306.94 367.9L295.24 366.62L301.1 376.82Z" fill="url(#paint3_radial_148_6518)" stroke="black" stroke-miterlimit="10"/>
<path d="M286.63 332.86L281.09 329.14L281.35 335.8L278.18 329.93L275.31 335.95L275.23 329.28L269.89 333.27L272.92 327.33L266.33 328.39L271.78 324.54L265.46 322.41L272.07 321.53L267.46 316.71L273.72 319L271.88 312.59L276.36 317.53L277.71 311L279.38 317.46L283.61 312.3L282.09 318.79L288.23 316.19L283.87 321.24L290.51 321.79L284.31 324.23L289.93 327.8L283.31 327.08L286.63 332.86Z" fill="white" stroke="black" stroke-width="0.12" stroke-miterlimit="10"/>
<path d="M340.26 23.09C304.08 23.09 295.17 32 295.17 68.18C295.17 32 286.26 23.09 250.08 23.09C286.26 23.09 295.17 14.18 295.17 -22C295.17 14.18 304.08 23.09 340.26 23.09Z" fill="url(#paint4_radial_148_6518)"/>
<path d="M340.26 23.09C304.08 23.09 295.17 32 295.17 68.18C295.17 32 286.26 23.09 250.08 23.09C286.26 23.09 295.17 14.18 295.17 -22C295.17 14.18 304.08 23.09 340.26 23.09Z" stroke="#020202" stroke-width="2.23" stroke-miterlimit="10"/>
<path d="M273.08 41.0899C261.11 41.0899 258.16 44.0399 258.16 56.0099C258.16 44.0399 255.21 41.0899 243.24 41.0899C255.21 41.0899 258.16 38.1399 258.16 26.1699C258.16 38.1399 261.11 41.0899 273.08 41.0899Z" fill="#FFABC0"/>
<path d="M273.08 41.0899C261.11 41.0899 258.16 44.0399 258.16 56.0099C258.16 44.0399 255.21 41.0899 243.24 41.0899C255.21 41.0899 258.16 38.1399 258.16 26.1699C258.16 38.1399 261.11 41.0899 273.08 41.0899Z" stroke="#020202" stroke-width="0.74" stroke-miterlimit="10"/>
<path d="M29.6685 13.4022L29.7951 14.7407L30.5739 13.6448L40.8437 -0.806026L33.4639 15.3133L32.9042 16.5357L34.1266 15.9761L50.246 8.59622L35.7952 18.8661L34.6993 19.6449L36.0377 19.7714L53.6874 21.4399L36.0377 23.1085L34.6993 23.235L35.7952 24.0138L50.246 34.2837L34.1266 26.9038L32.9042 26.3442L33.4639 27.5666L40.8437 43.6859L30.5739 29.2351L29.7951 28.1392L29.6685 29.4777L28 47.1274L26.3315 29.4777L26.2049 28.1392L25.4261 29.2351L15.1563 43.6859L22.5361 27.5666L23.0958 26.3442L21.8734 26.9038L5.75403 34.2837L20.2048 24.0138L21.3007 23.235L19.9623 23.1085L2.31255 21.4399L19.9623 19.7714L21.3007 19.6449L20.2048 18.8661L5.75403 8.59622L21.8734 15.9761L23.0958 16.5357L22.5361 15.3133L15.1563 -0.806033L25.4261 13.6448L26.2049 14.7407L26.3315 13.4022L28 -4.24751L29.6685 13.4022Z" fill="#6DFF6E" stroke="black"/>
<mask id="path-59-inside-1_148_6518" fill="white">
<path fill-rule="evenodd" clip-rule="evenodd" d="M100.393 341.707L98 316L95.587 341.921L87.4686 333.722L93.0991 343.594L77 346.823L93.0526 350.042L86.6694 359.6L95.6029 351.895L98 377.645L100.287 353.083L107.713 360.583L101.829 350.266L119 346.823L102.614 343.537L108.512 334.705L100.393 341.707Z"/>
</mask>
<path fill-rule="evenodd" clip-rule="evenodd" d="M100.393 341.707L98 316L95.587 341.921L87.4686 333.722L93.0991 343.594L77 346.823L93.0526 350.042L86.6694 359.6L95.6029 351.895L98 377.645L100.287 353.083L107.713 360.583L101.829 350.266L119 346.823L102.614 343.537L108.512 334.705L100.393 341.707Z" fill="url(#paint5_linear_148_6518)"/>
<path d="M98 316L98.9957 315.907L97.0043 315.907L98 316ZM100.393 341.707L99.3974 341.8L99.5772 343.732L101.046 342.465L100.393 341.707ZM95.587 341.921L94.8764 342.625L96.3841 344.147L96.5827 342.014L95.587 341.921ZM87.4686 333.722L88.1792 333.018L86.5999 334.217L87.4686 333.722ZM93.0991 343.594L93.2957 344.575L94.6541 344.302L93.9677 343.099L93.0991 343.594ZM77 346.823L76.8034 345.842L76.8034 347.803L77 346.823ZM93.0526 350.042L93.8842 350.597L94.7138 349.355L93.2493 349.061L93.0526 350.042ZM86.6694 359.6L85.8378 359.045L87.3226 360.357L86.6694 359.6ZM95.6029 351.895L96.5986 351.802L96.4188 349.871L94.9498 351.138L95.6029 351.895ZM98 377.645L97.0043 377.738H98.9957L98 377.645ZM100.287 353.083L100.997 352.379L99.4895 350.856L99.2908 352.99L100.287 353.083ZM107.713 360.583L107.002 361.286L108.582 360.087L107.713 360.583ZM101.829 350.266L101.632 349.286L100.274 349.558L100.96 350.762L101.829 350.266ZM119 346.823L119.197 347.803V345.842L119 346.823ZM102.614 343.537L101.782 342.981L100.953 344.223L102.417 344.517L102.614 343.537ZM108.512 334.705L109.344 335.26L107.859 333.948L108.512 334.705ZM97.0043 316.093L99.3974 341.8L101.389 341.615L98.9957 315.907L97.0043 316.093ZM96.5827 342.014L98.9957 316.093L97.0043 315.907L94.5913 341.828L96.5827 342.014ZM86.758 334.426L94.8764 342.625L96.2976 341.217L88.1792 333.018L86.758 334.426ZM93.9677 343.099L88.3372 333.227L86.5999 334.217L92.2304 344.089L93.9677 343.099ZM77.1966 347.803L93.2957 344.575L92.9025 342.614L76.8034 345.842L77.1966 347.803ZM93.2493 349.061L77.1966 345.842L76.8034 347.803L92.856 351.022L93.2493 349.061ZM87.501 360.155L93.8842 350.597L92.221 349.486L85.8378 359.045L87.501 360.155ZM94.9498 351.138L86.0163 358.843L87.3226 360.357L96.256 352.652L94.9498 351.138ZM98.9957 377.552L96.5986 351.802L94.6072 351.987L97.0043 377.738L98.9957 377.552ZM99.2908 352.99L97.0043 377.552L98.9957 377.738L101.282 353.175L99.2908 352.99ZM108.424 359.879L100.997 352.379L99.576 353.786L107.002 361.286L108.424 359.879ZM100.96 350.762L106.844 361.078L108.582 360.087L102.698 349.771L100.96 350.762ZM118.803 345.842L101.632 349.286L102.026 351.247L119.197 347.803L118.803 345.842ZM102.417 344.517L118.803 347.803L119.197 345.842L102.811 342.556L102.417 344.517ZM107.681 334.149L101.782 342.981L103.446 344.092L109.344 335.26L107.681 334.149ZM101.046 342.465L109.165 335.462L107.859 333.948L99.74 340.95L101.046 342.465Z" fill="black" mask="url(#path-59-inside-1_148_6518)"/>
</g>
<defs>
<linearGradient id="paint0_linear_148_6518" x1="324.56" y1="47.6899" x2="324.56" y2="84.2299" gradientUnits="userSpaceOnUse">
<stop stop-color="#3B99F1"/>
<stop offset="1" stop-color="#BBDEFF"/>
</linearGradient>
<radialGradient id="paint1_radial_148_6518" cx="0" cy="0" r="1" gradientUnits="userSpaceOnUse" gradientTransform="translate(9.51316 108.258) rotate(90) scale(39.5495 32.9624)">
<stop stop-color="white"/>
<stop offset="0.72" stop-color="#07E9BB"/>
<stop offset="1" stop-color="#00E8EE"/>
</radialGradient>
<radialGradient id="paint2_radial_148_6518" cx="0" cy="0" r="1" gradientUnits="userSpaceOnUse" gradientTransform="translate(372.797 364.326) rotate(-127.45) scale(61.1745 61.3691)">
<stop stop-color="#C6FFCD"/>
<stop offset="0.465" stop-color="#FCFFFC"/>
<stop offset="1" stop-color="#71BAFB"/>
</radialGradient>
<radialGradient id="paint3_radial_148_6518" cx="0" cy="0" r="1" gradientUnits="userSpaceOnUse" gradientTransform="translate(290 345.73) rotate(134.145) scale(23.6907 23.793)">
<stop stop-color="#FFEE5C"/>
<stop offset="1" stop-color="#FFAFC7"/>
</radialGradient>
<radialGradient id="paint4_radial_148_6518" cx="0" cy="0" r="1" gradientUnits="userSpaceOnUse" gradientTransform="translate(295.17 23.09) rotate(90.4162) scale(23.4106 23.4106)">
<stop stop-color="white"/>
<stop offset="0.910227" stop-color="#FFA5D4"/>
</radialGradient>
<linearGradient id="paint5_linear_148_6518" x1="98" y1="316" x2="98" y2="377.645" gradientUnits="userSpaceOnUse">
<stop stop-color="#05FCE1"/>
<stop offset="1" stop-color="white"/>
</linearGradient>
<clipPath id="clip0_148_6518">
<rect width="375" height="375" fill="white"/>
</clipPath>
</defs>
</svg>
