<svg width="375" height="160" viewBox="0 0 375 160" fill="none" xmlns="http://www.w3.org/2000/svg">
<g clip-path="url(#clip0_148_5468)">
<path d="M375 -6H0V369H375V-6Z" fill="#161617"/>
<path d="M79.16 49.0699L61 33.2599L67.85 26.4399L84 44.2599L79.16 49.0699Z" fill="#CCF872" stroke="black" stroke-miterlimit="10"/>
<path d="M312.6 72.4099L323.75 39.6899L336.52 45.0799L321.63 76.2299L312.6 72.4099Z" fill="url(#paint0_linear_148_5468)" stroke="black" stroke-miterlimit="10"/>
<path d="M33.65 60.1198L19.57 63.1798L18.75 57.4598L33.07 56.0698L33.65 60.1198Z" fill="#CCF872" stroke="black" stroke-width="0.6" stroke-miterlimit="10"/>
<path d="M358.78 119.06L342.48 104.86L348.63 98.74L363.13 114.74L358.78 119.06Z" fill="#3B99F1" stroke="black" stroke-miterlimit="10"/>
<path d="M352.13 137.19L339.49 139.94L338.75 134.81L351.61 133.56L352.13 137.19Z" fill="#CCF872" stroke="black" stroke-width="0.54" stroke-miterlimit="10"/>
<path d="M55.6299 76.5C57.5629 76.5 59.1299 74.933 59.1299 73C59.1299 71.067 57.5629 69.5 55.6299 69.5C53.6969 69.5 52.1299 71.067 52.1299 73C52.1299 74.933 53.6969 76.5 55.6299 76.5Z" fill="#3B99F1" stroke="black" stroke-miterlimit="10"/>
<path d="M35.6301 39C36.7347 39 37.6301 38.1046 37.6301 37C37.6301 35.8954 36.7347 35 35.6301 35C34.5256 35 33.6301 35.8954 33.6301 37C33.6301 38.1046 34.5256 39 35.6301 39Z" fill="white" stroke="black" stroke-width="0.57" stroke-miterlimit="10"/>
<path d="M97.1299 18.5C97.6822 18.5 98.1299 18.0523 98.1299 17.5C98.1299 16.9477 97.6822 16.5 97.1299 16.5C96.5776 16.5 96.1299 16.9477 96.1299 17.5C96.1299 18.0523 96.5776 18.5 97.1299 18.5Z" fill="white" stroke="black" stroke-width="0.29" stroke-miterlimit="10"/>
<path d="M57 91.4399C57.5523 91.4399 58 90.9922 58 90.4399C58 89.8877 57.5523 89.4399 57 89.4399C56.4477 89.4399 56 89.8877 56 90.4399C56 90.9922 56.4477 91.4399 57 91.4399Z" fill="white" stroke="black" stroke-width="0.29" stroke-miterlimit="10"/>
<path d="M83.1299 6.5C83.6822 6.5 84.1299 6.05228 84.1299 5.5C84.1299 4.94772 83.6822 4.5 83.1299 4.5C82.5776 4.5 82.1299 4.94772 82.1299 5.5C82.1299 6.05228 82.5776 6.5 83.1299 6.5Z" fill="white" stroke="black" stroke-width="0.29" stroke-miterlimit="10"/>
<path d="M270.13 91.0601C270.682 91.0601 271.13 90.6123 271.13 90.0601C271.13 89.5078 270.682 89.0601 270.13 89.0601C269.578 89.0601 269.13 89.5078 269.13 90.0601C269.13 90.6123 269.578 91.0601 270.13 91.0601Z" fill="white" stroke="black" stroke-width="0.29" stroke-miterlimit="10"/>
<path d="M71 83C71.5523 83 72 82.5523 72 82C72 81.4477 71.5523 81 71 81C70.4477 81 70 81.4477 70 82C70 82.5523 70.4477 83 71 83Z" fill="white" stroke="black" stroke-width="0.29" stroke-miterlimit="10"/>
<path d="M347.13 28.0601C347.682 28.0601 348.13 27.6123 348.13 27.0601C348.13 26.5078 347.682 26.0601 347.13 26.0601C346.578 26.0601 346.13 26.5078 346.13 27.0601C346.13 27.6123 346.578 28.0601 347.13 28.0601Z" fill="white" stroke="black" stroke-width="0.29" stroke-miterlimit="10"/>
<path d="M93 40.4399C94.6569 40.4399 96 39.0968 96 37.4399C96 35.7831 94.6569 34.4399 93 34.4399C91.3431 34.4399 90 35.7831 90 37.4399C90 39.0968 91.3431 40.4399 93 40.4399Z" fill="white" stroke="black" stroke-width="0.29" stroke-miterlimit="10"/>
<path d="M350.13 70.0601C350.682 70.0601 351.13 69.6123 351.13 69.0601C351.13 68.5078 350.682 68.0601 350.13 68.0601C349.578 68.0601 349.13 68.5078 349.13 69.0601C349.13 69.6123 349.578 70.0601 350.13 70.0601Z" fill="white" stroke="black" stroke-width="0.29" stroke-miterlimit="10"/>
<path d="M357 154.44C357.552 154.44 358 153.992 358 153.44C358 152.888 357.552 152.44 357 152.44C356.448 152.44 356 152.888 356 153.44C356 153.992 356.448 154.44 357 154.44Z" fill="white" stroke="black" stroke-width="0.29" stroke-miterlimit="10"/>
<path d="M264 85C264.552 85 265 84.5523 265 84C265 83.4477 264.552 83 264 83C263.448 83 263 83.4477 263 84C263 84.5523 263.448 85 264 85Z" fill="white" stroke="black" stroke-width="0.29" stroke-miterlimit="10"/>
<path d="M348.13 87.0601C348.682 87.0601 349.13 86.6123 349.13 86.0601C349.13 85.5078 348.682 85.0601 348.13 85.0601C347.578 85.0601 347.13 85.5078 347.13 86.0601C347.13 86.6123 347.578 87.0601 348.13 87.0601Z" fill="white" stroke="black" stroke-width="0.29" stroke-miterlimit="10"/>
<path d="M226.53 14.5601C227.557 14.5601 228.39 13.7273 228.39 12.7001C228.39 11.6728 227.557 10.8401 226.53 10.8401C225.503 10.8401 224.67 11.6728 224.67 12.7001C224.67 13.7273 225.503 14.5601 226.53 14.5601Z" fill="white" stroke="black" stroke-width="0.53" stroke-miterlimit="10"/>
<path d="M243.9 45.26C244.927 45.26 245.76 44.4273 245.76 43.4C245.76 42.3728 244.927 41.54 243.9 41.54C242.873 41.54 242.04 42.3728 242.04 43.4C242.04 44.4273 242.873 45.26 243.9 45.26Z" fill="white" stroke="black" stroke-width="0.53" stroke-miterlimit="10"/>
<path d="M27.94 139.54C30.2651 139.54 32.15 137.655 32.15 135.33C32.15 133.005 30.2651 131.12 27.94 131.12C25.6149 131.12 23.73 133.005 23.73 135.33C23.73 137.655 25.6149 139.54 27.94 139.54Z" fill="white" stroke="black" stroke-width="1.2" stroke-miterlimit="10"/>
<path d="M49.46 154.45C50.6198 154.45 51.56 153.51 51.56 152.35C51.56 151.19 50.6198 150.25 49.46 150.25C48.3002 150.25 47.36 151.19 47.36 152.35C47.36 153.51 48.3002 154.45 49.46 154.45Z" fill="white" stroke="black" stroke-width="0.6" stroke-miterlimit="10"/>
<path d="M50.4099 136.06C51.5697 136.06 52.5099 135.12 52.5099 133.96C52.5099 132.8 51.5697 131.86 50.4099 131.86C49.2501 131.86 48.3099 132.8 48.3099 133.96C48.3099 135.12 49.2501 136.06 50.4099 136.06Z" fill="white" stroke="black" stroke-width="0.6" stroke-miterlimit="10"/>
<path d="M361.13 136.56C363.615 136.56 365.63 134.545 365.63 132.06C365.63 129.575 363.615 127.56 361.13 127.56C358.645 127.56 356.63 129.575 356.63 132.06C356.63 134.545 358.645 136.56 361.13 136.56Z" fill="#3B99F1" stroke="black" stroke-width="1.29" stroke-miterlimit="10"/>
<path d="M15.0901 139.781C12.5775 123.31 10.9291 120.811 9.51993 120.811C8.11077 120.811 6.46232 123.31 3.94976 139.781C4.48152 128.043 4.096 121.422 1.83602 119.016C1.17132 118.311 0.333803 117.953 -0.64995 117.953C-3.69427 117.953 -8.38704 121.356 -15.4727 127.737C-7.29693 118.272 -4.30579 112.808 -5.58201 109.883C-6.27329 108.301 -8.17433 107.53 -11.3915 107.53C-14.2364 107.53 -18.2113 108.142 -23.4491 109.391C-13.1729 105.536 -8.49339 103.01 -8.49339 100.245C-8.49339 97.4798 -13.1729 94.9673 -23.4491 91.0987C-18.2113 92.3484 -14.2364 92.9599 -11.4048 92.9599C-8.18763 92.9599 -6.28659 92.1888 -5.5953 90.6069C-4.30579 87.6822 -7.29693 82.2184 -15.4727 72.7531C-8.37374 79.1342 -3.69427 82.5374 -0.64995 82.5374C0.333803 82.5374 1.17132 82.1785 1.83602 81.4739C4.096 79.0677 4.48152 72.434 3.94976 60.7087C6.46232 77.18 8.11077 79.6792 9.51993 79.6792C10.9291 79.6792 12.5775 77.18 15.0901 60.7087C14.5583 72.4473 14.9439 79.0677 17.2038 81.4872C17.8685 82.1918 18.7061 82.5507 19.6898 82.5507C22.7341 82.5507 27.4269 79.1475 34.5126 72.7664C26.3368 82.2317 23.3457 87.6955 24.6219 90.6202C25.3132 92.2021 27.2142 92.9732 30.4313 92.9732C33.2762 92.9732 37.2511 92.3617 42.4757 91.112C32.1994 94.9673 27.52 97.4931 27.52 100.258C27.52 103.023 32.1994 105.536 42.4757 109.405C37.2378 108.155 33.2629 107.543 30.418 107.543C27.2009 107.543 25.2999 108.314 24.6086 109.896C23.3191 112.821 26.3102 118.285 34.486 127.75C27.387 121.369 22.7075 117.966 19.6632 117.966C18.6795 117.966 17.842 118.325 17.1773 119.029C14.9173 121.436 14.5318 128.069 15.0635 139.808L15.0901 139.781Z" fill="url(#paint1_radial_148_5468)"/>
<path d="M4.49488 66.2657C6.68839 78.7753 8.17731 80.0515 9.52 80.0515C10.8627 80.0515 12.3516 78.762 14.5451 66.2657C14.3856 74.694 14.9971 79.666 16.938 81.7398C17.6692 82.5242 18.5998 82.9097 19.6899 82.9097C22.3221 82.9097 25.9513 80.6232 31.2556 76.1165C25.2601 83.5478 23.1463 88.1076 24.3029 90.7664C25.0606 92.4947 27.068 93.3322 30.4447 93.3322C32.4521 93.3322 35.0045 93.0264 38.1685 92.4282C30.6574 95.4858 27.1877 97.7458 27.1877 100.258C27.1877 102.771 30.6574 105.044 38.1685 108.088C35.0045 107.477 32.4521 107.184 30.4447 107.184C27.068 107.184 25.0606 108.022 24.3029 109.75C23.133 112.409 25.2468 116.969 31.2423 124.4C25.938 119.88 22.3088 117.594 19.6766 117.594C18.5865 117.594 17.6692 117.992 16.9247 118.764C14.9838 120.837 14.3723 125.823 14.5318 134.238C12.3383 121.728 10.8494 120.452 9.50671 120.452C8.16402 120.452 6.67509 121.741 4.48159 134.238C4.64112 125.809 4.02959 120.837 2.08868 118.764C1.35751 117.979 0.426929 117.594 -0.663176 117.594C-3.29538 117.594 -6.92463 119.88 -12.2289 124.387C-6.23335 116.956 -4.1196 112.396 -5.27618 109.737C-6.03394 108.009 -8.04132 107.171 -11.418 107.171C-13.4254 107.171 -15.9778 107.477 -19.1418 108.075C-11.6307 105.018 -8.16097 102.758 -8.16097 100.245C-8.16097 97.7325 -11.6307 95.4592 -19.1418 92.4149C-15.9778 93.0264 -13.4254 93.3189 -11.418 93.3189C-8.04132 93.3189 -6.03394 92.4814 -5.27618 90.7531C-4.10631 88.0944 -6.22005 83.5345 -12.2156 76.1032C-6.91134 80.6231 -3.28209 82.9097 -0.649881 82.9097C0.440224 82.9097 1.35751 82.5109 2.10197 81.7398C4.04289 79.666 4.65441 74.6807 4.49488 66.2657ZM15.9011 52.4399C13.5082 70.3735 11.5141 79.3336 9.52 79.3336C7.52591 79.3336 5.53181 70.3735 3.1389 52.4399C4.41512 72.9392 4.21571 82.1918 -0.649881 82.1918C-4.29243 82.1918 -10.5406 76.9939 -20.7238 67.4355C-4.67795 84.8506 -1.2747 92.601 -11.4047 92.601C-15.5923 92.601 -22.1063 91.2716 -31 88.7458C-1.4874 99.1815 -1.4874 101.295 -31 111.731C-22.1063 109.205 -15.6056 107.876 -11.4047 107.876C-1.2614 107.876 -4.67795 115.639 -20.7238 133.041C-10.5406 123.483 -4.27913 118.285 -0.649881 118.285C4.20242 118.285 4.41512 127.538 3.1389 148.037C5.53181 130.103 7.52591 121.143 9.52 121.143C11.5141 121.143 13.5082 130.103 15.9011 148.037C14.6249 127.538 14.8243 118.285 19.6899 118.285C23.3324 118.285 29.5806 123.483 39.7638 133.041C23.718 115.626 20.3147 107.876 30.4447 107.876C34.6323 107.876 41.1463 109.205 50.04 111.731C20.5274 101.295 20.5274 99.1815 50.04 88.7458C41.1463 91.2716 34.6456 92.601 30.4447 92.601C20.3014 92.601 23.718 84.8373 39.7638 67.4355C29.5806 76.9939 23.3191 82.1918 19.6899 82.1918C14.8376 82.1918 14.6249 72.9392 15.9011 52.4399Z" fill="black"/>
<path d="M340.26 15.09C304.08 15.09 295.17 24 295.17 60.18C295.17 24 286.26 15.09 250.08 15.09C286.26 15.09 295.17 6.18 295.17 -30C295.17 6.18 304.08 15.09 340.26 15.09Z" fill="url(#paint2_radial_148_5468)"/>
<path d="M340.26 15.09C304.08 15.09 295.17 24 295.17 60.18C295.17 24 286.26 15.09 250.08 15.09C286.26 15.09 295.17 6.18 295.17 -30C295.17 6.18 304.08 15.09 340.26 15.09Z" stroke="#020202" stroke-width="2.23" stroke-miterlimit="10"/>
<path d="M273.08 33.0899C261.11 33.0899 258.16 36.0399 258.16 48.0099C258.16 36.0399 255.21 33.0899 243.24 33.0899C255.21 33.0899 258.16 30.1399 258.16 18.1699C258.16 30.1399 261.11 33.0899 273.08 33.0899Z" fill="#FFABC0"/>
<path d="M273.08 33.0899C261.11 33.0899 258.16 36.0399 258.16 48.0099C258.16 36.0399 255.21 33.0899 243.24 33.0899C255.21 33.0899 258.16 30.1399 258.16 18.1699C258.16 30.1399 261.11 33.0899 273.08 33.0899Z" stroke="#020202" stroke-width="0.74" stroke-miterlimit="10"/>
<path d="M29.6685 5.4022L29.7951 6.74066L30.5739 5.64479L40.8437 -8.80603L33.4639 7.31332L32.9042 8.53573L34.1266 7.97608L50.246 0.59622L35.7952 10.8661L34.6993 11.6449L36.0377 11.7714L53.6874 13.4399L36.0377 15.1085L34.6993 15.235L35.7952 16.0138L50.246 26.2837L34.1266 18.9038L32.9042 18.3442L33.4639 19.5666L40.8437 35.6859L30.5739 21.2351L29.7951 20.1392L29.6685 21.4777L28 39.1274L26.3315 21.4777L26.2049 20.1392L25.4261 21.2351L15.1563 35.6859L22.5361 19.5666L23.0958 18.3442L21.8734 18.9038L5.75403 26.2837L20.2048 16.0138L21.3007 15.235L19.9623 15.1085L2.31255 13.4399L19.9623 11.7714L21.3007 11.6449L20.2048 10.8661L5.75403 0.596222L21.8734 7.97608L23.0958 8.53573L22.5361 7.31332L15.1563 -8.80603L25.4261 5.64479L26.2049 6.74066L26.3315 5.4022L28 -12.2475L29.6685 5.4022Z" fill="#6DFF6E" stroke="black"/>
</g>
<defs>
<linearGradient id="paint0_linear_148_5468" x1="324.56" y1="39.6899" x2="324.56" y2="76.2299" gradientUnits="userSpaceOnUse">
<stop stop-color="#3B99F1"/>
<stop offset="1" stop-color="#BBDEFF"/>
</linearGradient>
<radialGradient id="paint1_radial_148_5468" cx="0" cy="0" r="1" gradientUnits="userSpaceOnUse" gradientTransform="translate(9.51328 100.258) rotate(90) scale(39.5495 32.9624)">
<stop stop-color="white"/>
<stop offset="0.72" stop-color="#07E9BB"/>
<stop offset="1" stop-color="#00E8EE"/>
</radialGradient>
<radialGradient id="paint2_radial_148_5468" cx="0" cy="0" r="1" gradientUnits="userSpaceOnUse" gradientTransform="translate(295.17 15.09) rotate(90.4162) scale(23.4106 23.4106)">
<stop stop-color="white"/>
<stop offset="0.910227" stop-color="#FFA5D4"/>
</radialGradient>
<clipPath id="clip0_148_5468">
<rect width="375" height="160" fill="white"/>
</clipPath>
</defs>
</svg>
