<svg width="16" height="16" viewBox="0 0 16 16" fill="none" xmlns="http://www.w3.org/2000/svg">
<path d="M4.10426 6.21544L4.10265 6.21665L4.10002 6.21864L4.09311 6.22395C4.08778 6.22807 4.08103 6.23337 4.07297 6.23986C4.05685 6.25283 4.03545 6.27058 4.00963 6.29315C3.95804 6.33825 3.88858 6.40284 3.80826 6.4874C3.64783 6.65629 3.44247 6.90657 3.25009 7.24197C2.86196 7.91864 2.53581 8.92711 2.71914 10.2762C2.9 11.6072 3.45891 12.7201 4.40476 13.496C5.34725 14.2692 6.62357 14.6667 8.16669 14.6667C9.75835 14.6667 11.0284 14.0703 11.8695 13.0466C12.703 12.0324 13.0748 10.6494 12.9858 9.13737C12.9006 7.68684 12.1104 6.58634 11.4126 5.61419C11.3452 5.52033 11.2786 5.42765 11.2137 5.33598C10.4524 4.26152 9.85122 3.27109 9.99729 1.88579C10.0122 1.74485 9.96649 1.60421 9.87169 1.49887C9.77682 1.39353 9.64175 1.33337 9.50002 1.33337C9.24535 1.33337 8.95395 1.41219 8.67182 1.5307C8.38102 1.65286 8.06562 1.83171 7.75675 2.06467C7.14029 2.52963 6.52395 3.23046 6.19493 4.16777C5.86673 5.10276 6.033 5.99397 6.27341 6.64217C6.43128 7.06784 6.26005 7.48871 6.00233 7.61104C5.77441 7.71931 5.5017 7.62851 5.38415 7.40524L4.84593 6.38305C4.77784 6.25372 4.65656 6.16066 4.51401 6.12836C4.37147 6.09606 4.22145 6.1281 4.10426 6.21544Z" fill="#CCF872"/>
</svg>
