<svg width="32" height="32" viewBox="0 0 32 32" fill="none" xmlns="http://www.w3.org/2000/svg">
<path d="M14.5495 6.52988C15.3874 5.82337 16.6126 5.82337 17.4505 6.52989L24.2005 12.2214C24.7074 12.6489 25 13.2782 25 13.9413V23.2502C25 24.2166 24.2165 25 23.25 25H19.75C18.7835 25 18 24.2166 18 23.2502V18.2436C18 18.1056 17.8881 17.9936 17.75 17.9936H14.25C14.1119 17.9936 14 18.1056 14 18.2436V23.2502C14 24.2166 13.2165 25 12.25 25H8.75C7.7835 25 7 24.2166 7 23.2502V13.9413C7 13.2782 7.29255 12.6489 7.79952 12.2214L14.5495 6.52988ZM16.4835 7.67647C16.2042 7.44097 15.7958 7.44097 15.5165 7.67647L8.76651 13.368C8.59752 13.5105 8.5 13.7203 8.5 13.9413V23.2502C8.5 23.3883 8.61193 23.5002 8.75 23.5002H12.25C12.3881 23.5002 12.5 23.3883 12.5 23.2502V18.2436C12.5 17.2772 13.2835 16.4938 14.25 16.4938H17.75C18.7165 16.4938 19.5 17.2772 19.5 18.2436V23.2502C19.5 23.3883 19.6119 23.5002 19.75 23.5002H23.25C23.3881 23.5002 23.5 23.3883 23.5 23.2502V13.9413C23.5 13.7203 23.4025 13.5105 23.2335 13.368L16.4835 7.67647Z" fill="#75777F"/>
</svg>
