<svg width="140" height="40" viewBox="0 0 140 40" fill="none" xmlns="http://www.w3.org/2000/svg">
<path d="M23.7344 28.6502C23.023 23.0361 26.3217 18.829 32.5017 18.046C38.6816 17.2629 42.9299 20.5563 43.636 26.1282C44.3421 31.7001 41.0518 35.9694 34.8718 36.7525C28.6919 37.5355 24.4468 34.2632 23.7354 28.6491L23.7344 28.6502ZM36.7646 26.9998C36.4537 24.5485 35.0668 23.5114 33.2236 23.7443C31.3803 23.9783 30.2959 25.3283 30.6057 27.7797C30.9166 30.231 32.3056 31.2891 34.1499 31.0552C35.9932 30.8212 37.0755 29.4501 36.7646 26.9987V26.9998Z" fill="white" fill-opacity="0.4"/>
<path d="M40.3541 23.4881C39.8366 19.4032 42.2363 16.3417 46.7333 15.7726C51.2302 15.2024 54.3213 17.599 54.8356 21.6543C55.3488 25.7086 52.9554 28.8155 48.4585 29.3856C43.9615 29.9558 40.8726 27.574 40.3551 23.4892L40.3541 23.4881ZM49.8349 22.2867C49.6093 20.5035 48.5997 19.7479 47.2581 19.9186C45.9165 20.0883 45.1271 21.0715 45.3537 22.8547C45.5803 24.6379 46.591 25.4083 47.9326 25.2386C49.2742 25.0689 50.0614 24.0709 49.8359 22.2877L49.8349 22.2867Z" fill="white" fill-opacity="0.4"/>
<path fill-rule="evenodd" clip-rule="evenodd" d="M60.8533 25.2882C60.5361 24.2143 60.1862 23.1098 59.7857 22.0464H59.7868C60.1736 21.9231 60.5804 21.7925 60.9598 21.6491C61.2914 21.5244 61.6109 21.3942 61.9181 21.2587C61.8706 21.9133 61.9456 22.6116 62.1494 23.3522C63.2634 27.3991 66.3945 28.1189 72.0918 27.1704C73.2985 26.9754 73.5799 27.9977 72.4069 28.4815C70.6701 29.1654 66.8867 29.4047 64.4364 29.1623L65.3206 35.2896C67.8457 35.5573 71.0232 35.278 74.3292 34.3C79.9875 32.6285 82.2165 29.6544 81.3386 26.0459C80.408 22.2456 77.6131 21.2497 71.3362 22.175C70.1242 22.3489 69.8955 21.5174 71.02 21.0252C72.4955 20.3908 76.0039 20.0662 78.0336 20.1958L77.0662 14.1834C74.5558 14.1412 71.2224 14.5997 67.9859 15.5819C67.7665 15.6487 67.5526 15.7183 67.3442 15.7906C67.6185 14.5875 67.5049 13.2821 66.9859 11.9017C65.3861 7.64613 61.8334 6.44575 56.0581 8.44392L54.7092 8.95084C52.848 9.65062 51.0195 10.381 49.1931 11.1767C50.9131 16.9045 52.8638 21.9179 55.7241 27.2168L60.8533 25.2882ZM61.1052 14.0253C61.57 15.2605 60.6868 16.0256 59.2883 16.5736C58.7751 16.7665 58.2618 16.9593 57.7233 17.1406C57.2922 16.1099 56.9466 15.134 56.6156 14.0221L56.6009 13.9842C57.1004 13.7534 57.6316 13.5532 58.1448 13.3603C59.5012 12.8724 60.6404 12.7912 61.1052 14.0253Z" fill="white" fill-opacity="0.4"/>
<path d="M78.1917 18.4485L82.9079 17.1511C84.4307 21.5869 85.5658 25.8952 86.2919 30.5502L82.1375 31.6937C80.3796 27.3222 79.1518 23.0402 78.1907 18.4495L78.1917 18.4485Z" fill="white" fill-opacity="0.4"/>
<path d="M83.1704 20.0957C82.987 14.3099 86.6598 10.2356 93.3435 9.80243C95.4176 9.67069 97.7035 9.95103 99.3138 10.5633L98.7152 16.0646C96.3513 15.4323 93.43 15.3259 91.8207 16.151C91.1683 16.4809 90.6751 16.9604 90.3157 17.5032C93.0506 17.3061 95.855 17.1944 98.5972 17.2397L98.7784 21.5448C96.0225 21.7651 93.1749 21.9221 90.3895 21.9221C90.8068 22.5502 91.4413 23.0382 92.2454 23.2785C94.1645 23.8581 97.1818 23.4977 99.474 22.584L100.664 28.0284C98.8996 28.8578 96.4862 29.4427 93.9464 29.5238C87.6304 29.7241 83.359 26.1018 83.1683 20.0957H83.1704Z" fill="white" fill-opacity="0.4"/>
<path d="M103.49 22.0127C104.05 20.1505 105.61 19.2578 107.642 19.868C109.673 20.4782 110.476 22.1033 109.924 23.9445C109.365 25.8067 107.811 26.6783 105.779 26.0681C103.747 25.4579 102.925 23.896 103.49 22.0127ZM108.681 5.11572L114.902 6.98426C113.742 11.458 112.385 15.5945 110.761 19.6984L105.153 18.0142C106.059 13.6954 107.183 9.4883 108.681 5.11678V5.11572Z" fill="white" fill-opacity="0.4"/>
<path d="M115.748 27.4613C112.281 27.4613 111.427 28.5964 111.427 33.205C111.427 28.5964 110.573 27.4613 107.106 27.4613C110.573 27.4613 111.427 26.3263 111.427 21.7177C111.427 26.3263 112.281 27.4613 115.748 27.4613Z" fill="white" fill-opacity="0.4"/>
<g clip-path="url(#clip0_148_2425)">
<path d="M24.5775 26.8586C23.8661 21.2445 27.1648 17.0374 33.3448 16.2543C39.5248 15.4713 43.773 18.7647 44.4791 24.3366C45.1852 29.9085 41.895 34.1778 35.715 34.9608C29.535 35.7439 25.2899 32.4716 24.5786 26.8575L24.5775 26.8586ZM37.6078 25.2082C37.2969 22.7568 35.91 21.7198 34.0667 21.9527C32.2235 22.1867 31.139 23.5367 31.4489 25.988C31.7597 28.4394 33.1488 29.4975 34.9931 29.2635C36.8363 29.0296 37.9187 27.6585 37.6078 25.2071V25.2082Z" fill="url(#paint0_linear_148_2425)" stroke="#040000" stroke-width="0.421555" stroke-miterlimit="10"/>
<path d="M41.1972 21.6966C40.6798 17.6117 43.0795 14.5502 47.5764 13.9811C52.0733 13.4109 55.1644 15.8075 55.6787 19.8628C56.1919 23.9171 53.7986 27.024 49.3016 27.5941C44.8047 28.1643 41.7157 25.7825 41.1983 21.6976L41.1972 21.6966ZM50.678 20.4952C50.4525 18.712 49.4428 17.9563 48.1012 18.1271C46.7596 18.2968 45.9703 19.28 46.1969 21.0632C46.4235 22.8464 47.4341 23.6168 48.7757 23.4471C50.1173 23.2774 50.9046 22.2794 50.6791 20.4962L50.678 20.4952Z" fill="url(#paint1_linear_148_2425)" stroke="#040000" stroke-width="0.421555" stroke-miterlimit="10"/>
<path d="M60.6288 20.2548C61.0292 21.3182 61.3791 22.4227 61.6963 23.4966L56.5671 25.4252C53.7068 20.1262 51.7561 15.1129 50.0361 9.38502C51.8625 8.58934 53.691 7.859 55.5522 7.15921L56.9012 6.65229C62.6765 4.65412 66.2291 5.8545 67.8289 10.1101C69.4076 14.3088 67.2356 17.814 61.8028 19.8575C61.4234 20.0008 61.0166 20.1315 60.6298 20.2548H60.6288ZM60.1313 14.782C61.5298 14.234 62.413 13.4688 61.9482 12.2337C61.4835 10.9996 60.3442 11.0807 58.9879 11.5687C58.4746 11.7615 57.9434 11.9618 57.4439 12.1926L57.4587 12.2305C57.7896 13.3424 58.1353 14.3183 58.5663 15.349C59.1048 15.1677 59.6181 14.9748 60.1313 14.782Z" fill="url(#paint2_linear_148_2425)" stroke="#040000" stroke-width="0.421555" stroke-miterlimit="10"/>
<path d="M66.1637 33.498L65.2795 27.3707C67.7298 27.6131 71.5133 27.3739 73.2501 26.6899C74.423 26.2062 74.1416 25.1839 72.9349 25.3789C67.2376 26.3274 64.1065 25.6076 62.9926 21.5606C61.9724 17.8541 64.1782 15.2078 68.829 13.7903C72.0655 12.8081 75.3989 12.3497 77.9093 12.3918L78.8768 18.4042C76.847 18.2746 73.3386 18.5992 71.8631 19.2337C70.7386 19.7258 70.9673 20.5573 72.1793 20.3834C78.4563 19.4581 81.2512 20.4541 82.1818 24.2544C83.0596 27.8629 80.8307 30.837 75.1723 32.5084C71.8663 33.4864 68.6888 33.7657 66.1637 33.498Z" fill="url(#paint3_linear_148_2425)" stroke="#040000" stroke-width="0.421555" stroke-miterlimit="10"/>
<path d="M79.0349 16.6568L83.751 15.3595C85.2739 19.7953 86.4089 24.1036 87.135 28.7586L82.9806 29.9021C81.2227 25.5306 79.995 21.2486 79.0338 16.6579L79.0349 16.6568Z" fill="url(#paint4_linear_148_2425)" stroke="#040000" stroke-width="0.421555" stroke-miterlimit="10"/>
<path d="M84.0135 18.3042C83.8301 12.5184 87.5029 8.44407 94.1867 8.01093C96.2607 7.87919 98.5466 8.15952 100.157 8.77183L99.5583 14.2731C97.1945 13.6408 94.2731 13.5343 92.6638 14.3595C92.0115 14.6894 91.5182 15.1689 91.1589 15.7117C93.8937 15.5146 96.6981 15.4029 99.4403 15.4482L99.6216 19.7533C96.8657 19.9736 94.0181 20.1306 91.2326 20.1306C91.65 20.7587 92.2844 21.2467 93.0885 21.487C95.0077 22.0666 98.0249 21.7062 100.317 20.7925L101.507 26.2369C99.7428 27.0663 97.3294 27.6512 94.7895 27.7323C88.4736 27.9326 84.2022 24.3103 84.0114 18.3042H84.0135Z" fill="url(#paint5_linear_148_2425)" stroke="#040000" stroke-width="0.421555" stroke-miterlimit="10"/>
<path d="M104.334 20.2211C104.893 18.3589 106.453 17.4662 108.485 18.0764C110.517 18.6866 111.32 20.3117 110.767 22.1528C110.208 24.0151 108.654 24.8866 106.623 24.2764C104.591 23.6662 103.769 22.1044 104.334 20.2211ZM109.524 3.3241L115.745 5.19264C114.586 9.66639 113.228 13.8029 111.604 17.9067L105.997 16.2226C106.902 11.9038 108.026 7.69667 109.524 3.32515V3.3241Z" fill="url(#paint6_linear_148_2425)" stroke="#040000" stroke-width="0.421555" stroke-miterlimit="10"/>
<path d="M110.09 25.459C110.77 25.2762 111.296 24.9579 111.684 24.4421C112.018 23.9979 112.237 23.4234 112.376 22.7017C112.515 23.4234 112.733 23.9979 113.068 24.4421C113.456 24.9579 113.981 25.2762 114.662 25.459C113.981 25.6418 113.456 25.9601 113.068 26.4759C112.733 26.9201 112.515 27.4947 112.376 28.2163C112.237 27.4947 112.018 26.9201 111.684 26.4759C111.296 25.9601 110.77 25.6418 110.09 25.459Z" fill="white" stroke="black" stroke-width="0.421555"/>
<path d="M76.9222 11.0985C76.7171 11.1505 76.53 11.2373 76.3654 11.3509C75.9771 10.7363 75.2247 10.4116 74.482 10.5997C73.7645 10.7814 73.267 11.388 73.1895 12.0826C73.0913 12.0901 72.9924 12.1059 72.8934 12.1309C71.969 12.3651 71.4095 13.3045 71.6436 14.2291C71.8628 15.0951 72.7006 15.6409 73.5653 15.5144L73.8969 16.8245C73.9997 17.2305 74.412 17.4762 74.8179 17.3734C75.2238 17.2706 75.4695 16.8582 75.3667 16.4522L74.9515 14.8118C74.931 14.7306 74.8979 14.6561 74.8553 14.5893C74.949 14.4058 75.0103 14.2052 75.0335 13.9964C75.1318 13.9888 75.2307 13.9731 75.3296 13.948C75.5347 13.896 75.7218 13.8092 75.8864 13.6957C76.2747 14.3103 77.0271 14.6349 77.7698 14.4468C78.6942 14.2127 79.2538 13.2733 79.0197 12.3486C78.7856 11.424 77.8464 10.8644 76.922 11.0985H76.9222Z" fill="white" stroke="black" stroke-width="0.316166" stroke-linecap="round" stroke-linejoin="round"/>
<path d="M32.667 13.495C32.3521 13.5742 32.0649 13.7065 31.8122 13.8794C31.216 12.9433 30.061 12.4489 28.9207 12.7353C27.8193 13.0121 27.0555 13.936 26.9365 14.9939C26.7857 15.0054 26.6338 15.0293 26.482 15.0675C25.0628 15.4241 24.2038 16.8549 24.5632 18.2632C24.8998 19.5822 26.186 20.4134 27.5135 20.2207L28.0226 22.2161C28.1804 22.8345 28.8133 23.2087 29.4365 23.0522C30.0596 22.8956 30.4368 22.2675 30.279 21.6491L29.6415 19.1506C29.61 19.027 29.5593 18.9135 29.4939 18.8118C29.6377 18.5323 29.7318 18.2267 29.7675 17.9087C29.9183 17.8972 30.0701 17.8733 30.222 17.8351C30.5369 17.7559 30.8241 17.6236 31.0768 17.4507C31.673 18.3868 32.828 18.8812 33.9683 18.5948C35.3874 18.2382 36.2464 16.8073 35.8871 15.3991C35.5277 13.9908 34.0858 13.1384 32.6667 13.495H32.667Z" fill="white" stroke="black" stroke-width="0.316166" stroke-linecap="round" stroke-linejoin="round"/>
</g>
<defs>
<linearGradient id="paint0_linear_148_2425" x1="24.4821" y1="25.6079" x2="44.5735" y2="25.6079" gradientUnits="userSpaceOnUse">
<stop stop-color="white"/>
<stop offset="1" stop-color="#CCF872"/>
</linearGradient>
<linearGradient id="paint1_linear_148_2425" x1="41.1278" y1="20.7878" x2="55.7472" y2="20.7878" gradientUnits="userSpaceOnUse">
<stop stop-color="white"/>
<stop offset="1" stop-color="#CCF872"/>
</linearGradient>
<linearGradient id="paint2_linear_148_2425" x1="50.0361" y1="15.5684" x2="68.3319" y2="15.5684" gradientUnits="userSpaceOnUse">
<stop stop-color="white"/>
<stop offset="1" stop-color="#CCF872"/>
</linearGradient>
<linearGradient id="paint3_linear_148_2425" x1="62.7474" y1="22.9917" x2="82.3669" y2="22.9917" gradientUnits="userSpaceOnUse">
<stop stop-color="white"/>
<stop offset="1" stop-color="#CCF872"/>
</linearGradient>
<linearGradient id="paint4_linear_148_2425" x1="79.0338" y1="22.6308" x2="87.135" y2="22.6308" gradientUnits="userSpaceOnUse">
<stop stop-color="white"/>
<stop offset="1" stop-color="#CCF872"/>
</linearGradient>
<linearGradient id="paint5_linear_148_2425" x1="84.007" y1="17.8596" x2="101.507" y2="17.8596" gradientUnits="userSpaceOnUse">
<stop stop-color="white"/>
<stop offset="1" stop-color="#CCF872"/>
</linearGradient>
<linearGradient id="paint6_linear_148_2425" x1="104.159" y1="13.8968" x2="115.745" y2="13.8968" gradientUnits="userSpaceOnUse">
<stop stop-color="white"/>
<stop offset="1" stop-color="#CCF872"/>
</linearGradient>
<clipPath id="clip0_148_2425">
<rect width="91.7293" height="32.2237" fill="white" transform="translate(24.2708 3.06372)"/>
</clipPath>
</defs>
</svg>
