<svg width="32" height="32" viewBox="0 0 32 32" fill="none" xmlns="http://www.w3.org/2000/svg">
<path d="M21.751 17.9975C22.9932 17.9975 24 19.0044 24 20.2468V20.8223C24 21.7167 23.6804 22.5817 23.0989 23.2612C21.5294 25.095 19.1421 26 15.9967 26C12.8507 26 10.4647 25.0947 8.89831 23.2601C8.31852 22.5811 8 21.7174 8 20.8245V20.2468C8 19.0044 9.00688 17.9975 10.2489 17.9975H21.751ZM21.751 19.4977H10.2489C9.83534 19.4977 9.50005 19.8331 9.50005 20.2468V20.8245C9.50005 21.3603 9.69116 21.8785 10.039 22.2858C11.2924 23.7538 13.2583 24.4997 15.9967 24.4997C18.7351 24.4997 20.7028 23.7538 21.9592 22.2856C22.3082 21.8779 22.5 21.3589 22.5 20.8223V20.2468C22.5 19.8331 22.1646 19.4977 21.751 19.4977ZM15.9967 6C18.7582 6 20.9969 8.23898 20.9969 11.0009C20.9969 13.7628 18.7582 16.0018 15.9967 16.0018C13.2352 16.0018 10.9965 13.7628 10.9965 11.0009C10.9965 8.23898 13.2352 6 15.9967 6ZM15.9967 7.50027C14.0637 7.50027 12.4966 9.06756 12.4966 11.0009C12.4966 12.9342 14.0637 14.5015 15.9967 14.5015C17.9298 14.5015 19.4969 12.9342 19.4969 11.0009C19.4969 9.06756 17.9298 7.50027 15.9967 7.50027Z" fill="#75777F"/>
</svg>
