<svg width="60" height="60" viewBox="0 0 60 60" fill="none" xmlns="http://www.w3.org/2000/svg">
<path d="M8.9407 42.6811C9.25467 44.1388 9.67155 45.5645 10.3569 46.8942C10.8327 47.8177 11.3821 48.6999 12.1409 49.4254C12.9138 50.1651 13.8148 50.593 14.9055 50.4852C15.6934 50.4074 16.3376 50.0087 16.9328 49.5152C17.0495 49.4184 16.9749 49.3488 16.9015 49.2765C16.0053 48.3905 15.302 47.3624 14.7657 46.2286C14.3977 45.4512 14.0951 44.6428 13.7722 43.8438C13.6737 43.5994 13.7886 43.3592 14.0154 43.2728C14.2327 43.1901 14.4797 43.3061 14.5672 43.5554C14.8983 44.5033 15.273 45.4308 15.7585 46.311C16.3282 47.343 17.0136 48.2854 17.9129 49.0562C19.0776 50.0545 20.4095 50.5442 21.9571 50.491C24.2828 50.4113 26.6027 50.5445 28.9092 50.8587C29.9046 50.9939 30.8966 51.1625 31.8824 51.3582C33.0506 51.5905 34.2088 51.5873 35.3756 51.3645C36.4739 51.1544 37.5696 50.9397 38.5978 50.4809C39.5138 50.0715 40.3251 49.518 40.8297 48.6218C41.3133 47.7644 41.5727 46.8388 41.4432 45.8391C41.3496 45.1167 40.953 44.5984 40.3073 44.2769C40.2222 44.2346 40.0859 44.2339 39.9966 44.2699C38.3317 44.9425 36.5918 45.1686 34.8101 45.147C34.5318 45.1435 34.3475 44.9593 34.3517 44.7062C34.3562 44.4625 34.5341 44.2943 34.8112 44.2963C35.9459 44.3041 37.0704 44.2185 38.1754 43.9501C39.3882 43.6566 40.5257 43.2007 41.5128 42.4122C42.6136 41.5328 43.1177 40.3939 42.9948 38.9856C42.8834 37.7135 42.4292 36.591 41.4941 35.6951C41.0672 35.2855 40.5646 34.9969 39.9922 34.8529C39.8656 34.8209 39.6971 34.8383 39.5803 34.8981C38.5627 35.4192 37.5165 35.8611 36.3809 36.0411C35.9002 36.1172 35.4119 36.1535 34.9256 36.1868C34.6147 36.2074 34.4237 36.0237 34.4249 35.7523C34.4257 35.5077 34.6079 35.3515 34.907 35.3403C37.0684 35.2571 38.9817 34.4988 40.6499 33.1446C41.8718 32.1527 42.2244 30.7168 41.7221 29.2187C41.3522 28.1146 40.7351 27.1829 39.8663 26.4151C38.7084 25.3921 37.377 25.0555 35.8731 25.3655C34.7811 25.5898 33.7371 25.9606 32.7083 26.3799C30.0519 27.4614 27.4227 28.6035 24.8883 29.952C24.0878 30.3776 23.3003 30.828 22.5062 31.2677C22.4448 31.3013 22.3856 31.3378 22.3228 31.3691C22.0893 31.4887 21.8579 31.4349 21.7361 31.2341C21.6099 31.0248 21.6697 30.7755 21.899 30.6361C22.2393 30.4294 22.5806 30.2234 22.9326 30.0401C24.2873 29.3337 25.6452 28.6344 27.0044 27.9373C27.1257 27.8748 27.1956 27.8042 27.2184 27.6599C27.4916 25.9679 27.5084 24.2789 27.0863 22.6081C26.3777 19.7985 24.7173 17.7164 22.1441 16.4348C20.2637 15.4991 18.4662 15.8423 16.8337 17.1141C16.6454 17.2613 16.4902 17.4643 16.3561 17.6655C16.0903 18.064 16.0369 18.5065 16.2275 18.9493C16.6387 19.9036 17.1796 20.7782 17.9455 21.4884C18.8721 22.3481 19.5173 23.3807 19.8748 24.589C20.0739 25.2634 20.0646 25.9325 19.6893 26.5596C19.4611 26.9407 19.1175 27.1885 18.7321 27.3805C17.6323 27.9301 16.5633 28.5326 15.5609 29.2485C14.9852 29.6595 14.4453 30.1104 13.9996 30.6672C13.2246 31.634 12.986 32.736 13.1939 33.9456C13.2415 34.2214 13.315 34.4935 13.3823 34.7651C13.4531 35.049 13.3564 35.2733 13.1229 35.3482C12.8861 35.4237 12.6447 35.2859 12.5736 35.0005C12.4755 34.607 12.3886 34.2095 12.3243 33.8099C12.2942 33.6216 12.2219 33.5301 12.0397 33.4823C11.3495 33.2994 10.8076 33.5819 10.3302 34.0326C9.5296 34.7878 9.09463 35.7504 8.84067 36.804C8.48403 38.282 8.48797 39.7764 8.69977 41.2736C8.76612 41.7443 8.89075 42.207 8.98861 42.6728C8.97221 42.6762 8.95581 42.6797 8.9394 42.6831L8.9407 42.6811Z" fill="url(#paint0_linear_49_6376)"/>
<path d="M54.6258 12.16C46.3512 12.16 44.3129 14.5634 44.3129 24.32C44.3129 14.5634 42.2746 12.16 34 12.16C42.2746 12.16 44.3129 9.7566 44.3129 0C44.3129 9.7566 46.3512 12.16 54.6258 12.16Z" fill="url(#paint1_radial_49_6376)" stroke="#040000" stroke-width="0.269367" stroke-miterlimit="10"/>
<path d="M58 23.4851C53.5871 23.4851 52.5 24.7668 52.5 29.9701C52.5 24.7668 51.4129 23.4851 47 23.4851C51.4129 23.4851 52.5 22.2033 52.5 17C52.5 22.2033 53.5871 23.4851 58 23.4851Z" fill="url(#paint2_radial_49_6376)" stroke="#040000" stroke-width="0.143657" stroke-miterlimit="10"/>
<defs>
<linearGradient id="paint0_linear_49_6376" x1="32.9332" y1="46.4717" x2="10.9427" y2="18.4149" gradientUnits="userSpaceOnUse">
<stop stop-color="#CCF872"/>
<stop offset="1" stop-color="#FF9FE2"/>
</linearGradient>
<radialGradient id="paint1_radial_49_6376" cx="0" cy="0" r="1" gradientUnits="userSpaceOnUse" gradientTransform="translate(44.3129 12.16) rotate(90) scale(12.16 10.3129)">
<stop stop-color="white"/>
<stop offset="1" stop-color="#FFFF00"/>
</radialGradient>
<radialGradient id="paint2_radial_49_6376" cx="0" cy="0" r="1" gradientUnits="userSpaceOnUse" gradientTransform="translate(52.5 23.4851) rotate(90) scale(6.48507 5.5)">
<stop stop-color="white"/>
<stop offset="1" stop-color="#FFFF00"/>
</radialGradient>
</defs>
</svg>
