<svg width="24" height="24" viewBox="0 0 24 24" fill="none" xmlns="http://www.w3.org/2000/svg">
<g clip-path="url(#clip0_49_2464)">
<path d="M14.5757 19.4014C13.1303 16.7531 11.9314 15.5574 10.7499 15.5574C9.56844 15.5574 8.36974 16.7531 6.92416 19.4014C8.2518 16.4901 8.51634 14.6364 7.79209 13.4664C7.41128 12.8513 6.75307 12.4149 5.78007 12.1324C5.05936 11.9232 4.15862 11.7969 3.04547 11.7502C4.15862 11.7033 5.05936 11.5772 5.78007 11.368C6.75307 11.0855 7.41128 10.6491 7.79209 10.034C8.51634 8.86422 8.2516 7.01048 6.92416 4.099C8.36954 6.74729 9.56844 7.94295 10.7499 7.94295C11.9314 7.94295 13.1301 6.74729 14.5757 4.099C13.248 7.01027 12.9835 8.86401 13.7077 10.034C14.0885 10.6491 14.7467 11.0855 15.7197 11.368C16.4405 11.5772 17.3412 11.7035 18.4543 11.7502C17.3412 11.7971 16.4405 11.9232 15.7197 12.1324C14.7467 12.4149 14.0885 12.8513 13.7077 13.4664C12.9835 14.6362 13.2482 16.4899 14.5757 19.4014Z" fill="url(#paint0_linear_49_2464)"/>
<path d="M14.3655 4.51858C13.8977 5.59229 13.5881 6.50548 13.4268 7.28426C13.1828 8.46146 13.269 9.36428 13.6901 10.0445C14.0738 10.6643 14.7357 11.1035 15.7139 11.3877C16.348 11.5718 17.1209 11.6917 18.0548 11.75C17.1211 11.8083 16.348 11.9284 15.7139 12.1123C14.7357 12.3963 14.0736 12.8357 13.6901 13.4555C13.269 14.1357 13.1828 15.0385 13.4268 16.2157C13.5881 16.9945 13.8977 17.9077 14.3655 18.9814C13.0165 16.6119 11.8765 15.5367 10.7501 15.5367C9.62366 15.5367 8.48373 16.6119 7.1347 18.9814C7.60251 17.9077 7.9121 16.9945 8.07343 16.2157C8.31741 15.0385 8.23124 14.1357 7.81015 13.4555C7.42643 12.8357 6.76448 12.3965 5.78629 12.1123C5.15216 11.9282 4.37933 11.8083 3.44537 11.75C4.37912 11.6917 5.15216 11.5716 5.78629 11.3877C6.76448 11.1037 7.42664 10.6643 7.81015 10.0445C8.23124 9.36428 8.31741 8.46146 8.07343 7.28426C7.9121 6.50548 7.60251 5.59229 7.1347 4.51858C8.48373 6.88813 9.62366 7.96329 10.7501 7.96329C11.8765 7.96329 13.0165 6.88813 14.3655 4.51858ZM15.1251 3C13.4845 6.28128 12.1172 7.92181 10.7501 7.92181C9.38301 7.92181 8.01571 6.28128 6.37495 3C9.65626 9.56255 8.56242 11.75 2 11.75C8.56242 11.75 9.65626 13.9374 6.37495 20.5C8.0155 17.2187 9.3828 15.5782 10.7499 15.5782C12.117 15.5782 13.4843 17.2187 15.1248 20.5C11.8435 13.9374 12.9374 11.75 19.4998 11.75C12.9374 11.75 11.8435 9.56255 15.1248 3H15.1251Z" fill="#040000"/>
</g>
<path fill-rule="evenodd" clip-rule="evenodd" d="M15.6077 12.5201C15.6077 13.8504 14.5292 14.9288 13.1989 14.9288C12.9443 14.9288 12.699 14.8894 12.4686 14.8162C11.8423 14.9909 11.0633 14.5744 10.6324 13.7937C10.1494 12.9185 10.2868 11.9171 10.9393 11.5569C10.961 11.5449 10.983 11.5338 11.0053 11.5235C11.3844 10.6905 12.224 10.1113 13.1989 10.1113C14.5292 10.1113 15.6077 11.1898 15.6077 12.5201Z" fill="white"/>
<path d="M12.4686 14.8162L12.4792 14.7828L12.4693 14.7796L12.4592 14.7825L12.4686 14.8162ZM10.6324 13.7937L10.663 13.7768L10.6324 13.7937ZM10.9393 11.5569L10.9224 11.5263L10.9393 11.5569ZM11.0053 11.5235L11.02 11.5553L11.0318 11.5499L11.0372 11.538L11.0053 11.5235ZM13.1989 14.9638C14.5486 14.9638 15.6427 13.8697 15.6427 12.5201H15.5727C15.5727 13.8311 14.5099 14.8938 13.1989 14.8938V14.9638ZM12.458 14.8495C12.6918 14.9238 12.9407 14.9638 13.1989 14.9638V14.8938C12.948 14.8938 12.7062 14.8549 12.4792 14.7828L12.458 14.8495ZM10.6017 13.8106C11.0372 14.5996 11.8304 15.0306 12.4781 14.8499L12.4592 14.7825C11.8542 14.9513 11.0893 14.5492 10.663 13.7768L10.6017 13.8106ZM10.9224 11.5263C10.5842 11.7129 10.382 12.0644 10.3253 12.4774C10.2687 12.8903 10.357 13.367 10.6017 13.8106L10.663 13.7768C10.4248 13.3451 10.3403 12.8835 10.3947 12.4869C10.4491 12.0903 10.6418 11.7611 10.9562 11.5876L10.9224 11.5263ZM10.9907 11.4918C10.9676 11.5024 10.9448 11.5139 10.9224 11.5263L10.9562 11.5876C10.9772 11.576 10.9984 11.5653 11.02 11.5553L10.9907 11.4918ZM13.1989 10.0763C12.2098 10.0763 11.358 10.664 10.9735 11.509L11.0372 11.538C11.4107 10.717 12.2382 10.1463 13.1989 10.1463V10.0763ZM15.6427 12.5201C15.6427 11.1704 14.5486 10.0763 13.1989 10.0763V10.1463C14.5099 10.1463 15.5727 11.2091 15.5727 12.5201H15.6427Z" fill="#040000"/>
<path d="M15.7251 12.0824C15.7251 12.0824 15.4012 12.5029 16.2594 12.6941C17.1176 12.8853 21.5486 13.5247 21.5486 13.5247C21.5486 13.5247 22.2117 13.615 21.6761 13.615C21.1405 13.615 13.9896 13.5423 14.0018 12.9605L15.7251 12.0822V12.0824Z" fill="#A96E01" stroke="#040000" stroke-width="0.07" stroke-miterlimit="10"/>
<path d="M13.0529 13.1042C13.0529 13.1042 13.5935 13.525 14.1563 15.2786C14.7194 17.0322 16.4161 17.453 16.4161 17.453C16.4161 17.453 18.0825 17.7336 19.3853 16.5937C20.4438 15.6677 20.9024 14.905 21.0371 14.6517C21.0791 14.5729 21.1258 14.4977 21.1782 14.4279C21.3251 14.2319 21.6164 13.8772 21.885 13.7529C21.885 13.7529 13.7659 13.9163 13.0529 13.104V13.1042Z" fill="url(#paint1_linear_49_2464)" stroke="#040000" stroke-width="0.07" stroke-linecap="round" stroke-linejoin="round"/>
<path d="M12.9799 13.0709C12.9799 13.0709 13.6362 13.041 13.9758 12.958C13.9758 12.958 13.9031 13.257 18.5763 13.5229C23.2496 13.7886 21.3406 13.5406 21.3406 13.5406C21.3406 13.5406 21.811 13.5846 21.9278 13.6544C22.0445 13.7242 21.7856 13.7528 21.7856 13.7528C21.7856 13.7528 13.288 13.8866 12.9799 13.0709Z" fill="url(#paint2_linear_49_2464)" stroke="#040000" stroke-width="0.07" stroke-linecap="round" stroke-linejoin="round"/>
<path d="M12.8607 12.6594C12.8607 12.6594 12.9222 12.3363 13.832 11.8723C14.9459 11.304 20.6948 9.06798 21.666 8.79749C21.666 8.79749 14.0642 13.25 13.1351 13.25C13.1351 13.25 12.7274 13.1975 12.8607 12.6596V12.6594Z" fill="url(#paint3_linear_49_2464)" stroke="#040000" stroke-width="0.07" stroke-miterlimit="10"/>
<defs>
<linearGradient id="paint0_linear_49_2464" x1="10.7499" y1="4.099" x2="10.7499" y2="19.4014" gradientUnits="userSpaceOnUse">
<stop stop-color="#FFFF00"/>
<stop offset="0.435" stop-color="#FF9FE2"/>
<stop offset="1" stop-color="#45A5FA"/>
</linearGradient>
<linearGradient id="paint1_linear_49_2464" x1="13.0529" y1="15.2938" x2="21.885" y2="15.2938" gradientUnits="userSpaceOnUse">
<stop stop-color="#FFFFB8"/>
<stop offset="1" stop-color="#FFA703"/>
</linearGradient>
<linearGradient id="paint2_linear_49_2464" x1="12.9799" y1="13.3595" x2="21.958" y2="13.3595" gradientUnits="userSpaceOnUse">
<stop stop-color="white"/>
<stop offset="1" stop-color="#FFF39F"/>
</linearGradient>
<linearGradient id="paint3_linear_49_2464" x1="12.8339" y1="11.0238" x2="21.666" y2="11.0238" gradientUnits="userSpaceOnUse">
<stop stop-color="#FFFFB8"/>
<stop offset="1" stop-color="#FFA703"/>
</linearGradient>
<clipPath id="clip0_49_2464">
<rect width="17.5" height="17.5" fill="white" transform="translate(2 3)"/>
</clipPath>
</defs>
</svg>
