<svg width="24" height="24" viewBox="0 0 24 24" fill="none" xmlns="http://www.w3.org/2000/svg">
<path d="M17.4794 13.6191C17.4769 14.1218 17.4382 14.6211 17.3042 15.1073C17.2112 15.445 17.0911 15.7742 16.8911 16.0661C16.6873 16.3638 16.4197 16.5674 16.0524 16.6075C15.787 16.6364 15.5469 16.5495 15.3163 16.428C15.2711 16.4041 15.2908 16.376 15.31 16.347C15.5443 15.9926 15.7051 15.6046 15.8034 15.1934C15.871 14.9114 15.9148 14.6237 15.9659 14.3377C15.9815 14.2502 15.9269 14.1789 15.8461 14.1661C15.7687 14.1539 15.6952 14.2093 15.6836 14.2976C15.6401 14.6333 15.5808 14.9653 15.4816 15.2894C15.3652 15.6694 15.2044 16.0278 14.9611 16.3445C14.646 16.7546 14.2405 17.0085 13.7262 17.0982C12.9533 17.2331 12.1972 17.4379 11.4579 17.7015C11.1389 17.8151 10.8233 17.9395 10.5116 18.0724C10.1422 18.23 9.75992 18.3093 9.3595 18.3166C8.98254 18.3235 8.60615 18.3286 8.23512 18.2485C7.9045 18.1769 7.59847 18.0505 7.36986 17.7898C7.15087 17.5404 7.0011 17.253 6.97454 16.9142C6.95532 16.6694 7.05027 16.4709 7.24101 16.3201C7.26616 16.3002 7.31109 16.2905 7.34302 16.2962C7.93898 16.4027 8.52872 16.3567 9.11507 16.226C9.20663 16.2056 9.25467 16.132 9.23573 16.0488C9.21737 15.9687 9.147 15.9256 9.05573 15.9454C8.68188 16.0267 8.30492 16.0764 7.92174 16.0644C7.50126 16.0517 7.09435 15.9801 6.714 15.7884C6.28985 15.5745 6.04457 15.2337 5.98749 14.7606C5.93606 14.3331 6.00812 13.9312 6.25453 13.5708C6.36699 13.4061 6.5128 13.276 6.69168 13.1888C6.73124 13.1695 6.78804 13.1636 6.83071 13.1752C7.20258 13.2766 7.57841 13.3499 7.96554 13.3306C8.12944 13.3223 8.29305 13.3005 8.45582 13.2777C8.55981 13.263 8.61011 13.1891 8.59089 13.0997C8.57365 13.019 8.50272 12.9801 8.40326 12.9971C7.68438 13.1196 7.00053 13.002 6.35625 12.6708C5.88435 12.4283 5.66846 11.979 5.73034 11.4499C5.77584 11.0599 5.91487 10.7097 6.14828 10.3962C6.4594 9.97841 6.87535 9.77506 7.39304 9.77307C7.76887 9.77137 8.13904 9.82135 8.50753 9.88838C9.45897 10.0611 10.4056 10.2556 11.3353 10.5248C11.6289 10.6098 11.9199 10.7038 12.2124 10.7938C12.235 10.8006 12.2571 10.8086 12.28 10.8145C12.3653 10.8378 12.4379 10.804 12.4642 10.7293C12.4913 10.6515 12.4543 10.5734 12.369 10.5433C12.2424 10.4987 12.1155 10.4544 11.9866 10.4183C11.4907 10.2792 10.9942 10.1426 10.4974 10.0068C10.4531 9.9946 10.4251 9.97614 10.4076 9.93013C10.2002 9.39079 10.0775 8.8347 10.101 8.25419C10.14 7.27805 10.5435 6.47601 11.3036 5.87476C11.8592 5.43568 12.4761 5.42432 13.1028 5.73077C13.1752 5.76627 13.2404 5.8225 13.2987 5.87959C13.4139 5.99262 13.4623 6.13491 13.4301 6.29424C13.3605 6.63761 13.2427 6.96365 13.0392 7.25107C12.7931 7.59898 12.6518 7.98438 12.6176 8.40784C12.5987 8.64413 12.6482 8.86424 12.8154 9.04516C12.9172 9.15507 13.0477 9.213 13.1882 9.24964C13.5891 9.35473 13.9836 9.47941 14.364 9.64612C14.5824 9.74183 14.7918 9.85316 14.9775 10.006C15.3002 10.2712 15.4553 10.6183 15.4706 11.0318C15.4739 11.1261 15.4686 11.2209 15.4652 11.3152C15.4615 11.4138 15.509 11.4811 15.5912 11.4896C15.6746 11.4981 15.7447 11.4359 15.7483 11.3368C15.7534 11.2002 15.7545 11.063 15.748 10.9267C15.7449 10.8625 15.7625 10.8273 15.8193 10.7989C16.0343 10.6907 16.2327 10.7464 16.4214 10.862C16.7379 11.0557 16.9482 11.3431 17.105 11.6731C17.3251 12.136 17.4274 12.6294 17.4613 13.138C17.4721 13.2979 17.463 13.4592 17.463 13.6197C17.4687 13.6197 17.4743 13.6197 17.48 13.6197L17.4794 13.6191Z" fill="url(#paint0_radial_49_2465)" stroke="#040000" stroke-width="0.07" stroke-miterlimit="10"/>
<path d="M7.24 8.28016C5.53893 8.28016 5.12 8.69908 5.12 10.4002C5.12 8.69908 4.70107 8.28016 3 8.28016C4.70107 8.28016 5.12 7.86123 5.12 6.16016C5.12 7.86123 5.53893 8.28016 7.24 8.28016Z" fill="#CCF872" stroke="#040000" stroke-width="0.07" stroke-miterlimit="10"/>
<path d="M21.16 17.5601C19.0097 17.5601 18.48 18.3586 18.48 21.6001C18.48 18.3586 17.9503 17.5601 15.8 17.5601C17.9503 17.5601 18.48 16.7616 18.48 13.5201C18.48 16.7616 19.0097 17.5601 21.16 17.5601Z" fill="#CCF872" stroke="#040000" stroke-width="0.07" stroke-miterlimit="10"/>
<path d="M10.52 5.16012C8.36967 5.16012 7.83997 5.78469 7.83997 8.32012C7.83997 5.78469 7.31028 5.16012 5.15997 5.16012C7.31028 5.16012 7.83997 4.53555 7.83997 2.00012C7.83997 4.53555 8.36967 5.16012 10.52 5.16012Z" fill="url(#paint1_radial_49_2465)" stroke="#040000" stroke-width="0.07" stroke-miterlimit="10"/>
<defs>
<radialGradient id="paint0_radial_49_2465" cx="0" cy="0" r="1" gradientUnits="userSpaceOnUse" gradientTransform="translate(12.12 17.8801) rotate(92.1961) scale(13.57 18.7684)">
<stop stop-color="#45A5FA"/>
<stop offset="0.42" stop-color="white"/>
<stop offset="1" stop-color="#B3FFBD"/>
</radialGradient>
<radialGradient id="paint1_radial_49_2465" cx="0" cy="0" r="1" gradientUnits="userSpaceOnUse" gradientTransform="translate(7.83997 5.16012) rotate(90) scale(3.16 2.68)">
<stop stop-color="white"/>
<stop offset="1" stop-color="#FFFF00"/>
</radialGradient>
</defs>
</svg>
