<svg width="24" height="24" viewBox="0 0 24 24" fill="none" xmlns="http://www.w3.org/2000/svg">
<path fill-rule="evenodd" clip-rule="evenodd" d="M19.0709 11.0325L18.0855 10.7829C17.9648 10.7524 17.8422 10.8254 17.8117 10.9461L17.7451 11.2089L18.3315 11.3574C18.4521 11.388 18.5339 11.4758 18.5143 11.5535L18.1101 13.1494C18.0904 13.2272 17.9767 13.2654 17.856 13.2349L17.2697 13.0864L17.1847 13.422C17.1542 13.5427 17.2272 13.6653 17.3478 13.6958L18.3333 13.9454C18.454 13.9759 18.5765 13.9029 18.6071 13.7822L19.2341 11.3062C19.2646 11.1856 19.1916 11.063 19.0709 11.0325Z" fill="url(#paint0_linear_107_1098)"/>
<path d="M18.0855 10.7829L18.0701 10.8435L18.0701 10.8435L18.0855 10.7829ZM19.0709 11.0325L19.0863 10.9719L19.0863 10.9719L19.0709 11.0325ZM17.8117 10.9461L17.7511 10.9307L17.7511 10.9307L17.8117 10.9461ZM17.7451 11.2089L17.7298 11.2695C17.7137 11.2655 17.6999 11.2552 17.6914 11.2409C17.6829 11.2267 17.6805 11.2097 17.6845 11.1936L17.7451 11.2089ZM18.3315 11.3574L18.3161 11.418L18.3161 11.418L18.3315 11.3574ZM18.5143 11.5535L18.4537 11.5382L18.4537 11.5382L18.5143 11.5535ZM18.1101 13.1494L18.1707 13.1647L18.1707 13.1647L18.1101 13.1494ZM17.856 13.2349L17.8407 13.2955L17.8407 13.2955L17.856 13.2349ZM17.2697 13.0864L17.2091 13.0711C17.2132 13.055 17.2235 13.0412 17.2377 13.0327C17.2519 13.0242 17.269 13.0218 17.285 13.0258L17.2697 13.0864ZM17.1847 13.422L17.1241 13.4067L17.1241 13.4067L17.1847 13.422ZM17.3478 13.6958L17.3632 13.6352L17.3632 13.6352L17.3478 13.6958ZM18.3333 13.9454L18.318 14.0059L18.318 14.0059L18.3333 13.9454ZM18.6071 13.7822L18.6677 13.7976L18.6677 13.7976L18.6071 13.7822ZM19.2341 11.3062L19.2946 11.3216L19.2946 11.3216L19.2341 11.3062ZM18.1008 10.7223L19.0863 10.9719L19.0556 11.0931L18.0701 10.8435L18.1008 10.7223ZM17.7511 10.9307C17.7901 10.7766 17.9467 10.6833 18.1008 10.7223L18.0701 10.8435C17.9829 10.8214 17.8944 10.8742 17.8723 10.9614L17.7511 10.9307ZM17.6845 11.1936L17.7511 10.9307L17.8723 10.9614L17.8057 11.2243L17.6845 11.1936ZM17.7605 11.1484L18.3468 11.2968L18.3161 11.418L17.7298 11.2695L17.7605 11.1484ZM18.3468 11.2968C18.417 11.3146 18.4788 11.3496 18.5212 11.3952C18.5631 11.4401 18.5917 11.5025 18.5748 11.5689L18.4537 11.5382C18.4565 11.5268 18.454 11.5064 18.4298 11.4804C18.406 11.4549 18.3665 11.4308 18.3161 11.418L18.3468 11.2968ZM18.5748 11.5689L18.1707 13.1647L18.0496 13.1341L18.4537 11.5382L18.5748 11.5689ZM18.1707 13.1647C18.1539 13.2312 18.0991 13.2724 18.0409 13.292C17.9819 13.3118 17.9109 13.3133 17.8407 13.2955L17.8714 13.1743C17.9218 13.1871 17.968 13.1846 18.001 13.1735C18.0348 13.1622 18.0467 13.1454 18.0496 13.1341L18.1707 13.1647ZM17.8407 13.2955L17.2544 13.147L17.285 13.0258L17.8714 13.1743L17.8407 13.2955ZM17.1241 13.4067L17.2091 13.0711L17.3303 13.1018L17.2453 13.4374L17.1241 13.4067ZM17.3325 13.7564C17.1784 13.7174 17.0851 13.5608 17.1241 13.4067L17.2453 13.4374C17.2232 13.5246 17.276 13.6132 17.3632 13.6352L17.3325 13.7564ZM18.318 14.0059L17.3325 13.7564L17.3632 13.6352L18.3486 13.8848L18.318 14.0059ZM18.6677 13.7976C18.6286 13.9517 18.4721 14.045 18.318 14.0059L18.3486 13.8848C18.4358 13.9068 18.5244 13.8541 18.5465 13.7669L18.6677 13.7976ZM19.2946 11.3216L18.6677 13.7976L18.5465 13.7669L19.1735 11.2909L19.2946 11.3216ZM19.0863 10.9719C19.2404 11.0109 19.3337 11.1675 19.2946 11.3216L19.1735 11.2909C19.1955 11.2037 19.1428 11.1151 19.0556 11.0931L19.0863 10.9719Z" fill="black"/>
<path d="M12.4503 14.4735L16.2204 15.4282C16.555 15.513 16.8951 15.3104 16.9798 14.9757L18.2921 9.79352C18.3768 9.45884 18.1742 9.11882 17.8395 9.03407L14.0694 8.07939C13.7347 7.99464 13.3947 8.19725 13.31 8.53193L11.9977 13.7141C11.913 14.0488 12.1156 14.3888 12.4503 14.4735Z" fill="url(#paint1_linear_107_1098)" stroke="black" stroke-width="0.125" stroke-linecap="round" stroke-linejoin="round"/>
<path d="M14.5919 6.49033C14.7714 6.53654 14.9352 6.61356 15.0791 6.7146C15.419 6.16843 16.0775 5.8802 16.7274 6.04729C17.3553 6.20863 17.7906 6.74749 17.8584 7.36468C17.9443 7.37121 18.031 7.38531 18.1173 7.4075C18.9262 7.61558 19.416 8.45024 19.2111 9.27159C19.0193 10.041 18.286 10.5258 17.5293 10.4133L17.2391 11.5772C17.1491 11.938 16.7881 12.1562 16.4331 12.0648C16.0777 11.9735 15.8628 11.6069 15.9528 11.2464L16.3163 9.78904C16.3343 9.71698 16.3631 9.65067 16.4007 9.59141C16.3186 9.42823 16.2649 9.25018 16.2446 9.06481C16.1587 9.05829 16.0721 9.04419 15.9857 9.022C15.8062 8.97579 15.6425 8.89877 15.4985 8.79773C15.1586 9.3439 14.5001 9.63213 13.8502 9.46504C13.0413 9.25697 12.5515 8.4223 12.7565 7.60095C12.9614 6.77961 13.7833 6.28226 14.5922 6.49033H14.5919Z" fill="white" stroke="black" stroke-width="0.125" stroke-linecap="round" stroke-linejoin="round"/>
<path d="M16.0993 14.0115C16.5248 14.0115 16.8696 13.7011 16.8696 13.3182C16.8696 12.9353 16.5248 12.6249 16.0993 12.6249C15.6739 12.6249 15.329 12.9353 15.329 13.3182C15.329 13.7011 15.6739 14.0115 16.0993 14.0115Z" fill="white" stroke="black" stroke-width="0.125" stroke-linecap="round" stroke-linejoin="round"/>
<path fill-rule="evenodd" clip-rule="evenodd" d="M5.24808 12.1335L6.68531 11.7695C6.86126 11.725 7.04003 11.8315 7.08458 12.0074L7.18163 12.3907L6.32652 12.6072C6.15056 12.6518 6.0312 12.7798 6.05992 12.8933L6.64929 15.2207C6.67801 15.3341 6.84393 15.3899 7.01989 15.3454L7.875 15.1289L7.99899 15.6185C8.04355 15.7945 7.93702 15.9732 7.76107 16.0178L6.32384 16.3817C6.14789 16.4263 5.96912 16.3197 5.92457 16.1438L5.01016 12.5327C4.9656 12.3568 5.07213 12.178 5.24808 12.1335Z" fill="url(#paint2_linear_107_1098)"/>
<path d="M6.68531 11.7695L6.70065 11.8301L6.70065 11.8301L6.68531 11.7695ZM5.24808 12.1335L5.23274 12.0729L5.23274 12.0729L5.24808 12.1335ZM7.08458 12.0074L7.02399 12.0228L7.02399 12.0228L7.08458 12.0074ZM7.18163 12.3907L7.19697 12.4513C7.21304 12.4472 7.22683 12.4369 7.23532 12.4227C7.2438 12.4084 7.24629 12.3914 7.24222 12.3753L7.18163 12.3907ZM6.32652 12.6072L6.31118 12.5466L6.31118 12.5466L6.32652 12.6072ZM6.05992 12.8933L5.99933 12.9086L5.99933 12.9086L6.05992 12.8933ZM6.64929 15.2207L6.70988 15.2054L6.70988 15.2054L6.64929 15.2207ZM7.01989 15.3454L7.03523 15.406L7.03523 15.406L7.01989 15.3454ZM7.875 15.1289L7.93559 15.1135C7.92711 15.08 7.89312 15.0598 7.85966 15.0683L7.875 15.1289ZM7.99899 15.6185L7.9384 15.6338L7.9384 15.6338L7.99899 15.6185ZM7.76107 16.0178L7.74572 15.9572L7.74572 15.9572L7.76107 16.0178ZM6.32384 16.3817L6.3085 16.3211L6.3085 16.3211L6.32384 16.3817ZM5.92457 16.1438L5.98515 16.1284L5.98515 16.1284L5.92457 16.1438ZM5.01016 12.5327L5.07075 12.5174L5.01016 12.5327ZM6.66996 11.7089L5.23274 12.0729L5.26343 12.1941L6.70065 11.8301L6.66996 11.7089ZM7.14517 11.9921C7.09214 11.7827 6.87938 11.6559 6.66996 11.7089L6.70065 11.8301C6.84314 11.794 6.98791 11.8803 7.02399 12.0228L7.14517 11.9921ZM7.24222 12.3753L7.14517 11.9921L7.02399 12.0228L7.12104 12.406L7.24222 12.3753ZM7.16629 12.3301L6.31118 12.5466L6.34186 12.6678L7.19697 12.4513L7.16629 12.3301ZM6.31118 12.5466C6.21331 12.5714 6.12833 12.62 6.07074 12.6818C6.01369 12.743 5.978 12.8244 5.99933 12.9086L6.1205 12.8779C6.11312 12.8487 6.12275 12.8093 6.16218 12.767C6.20109 12.7253 6.26377 12.6876 6.34186 12.6678L6.31118 12.5466ZM5.99933 12.9086L6.5887 15.2361L6.70988 15.2054L6.1205 12.8779L5.99933 12.9086ZM6.5887 15.2361C6.61003 15.3203 6.68013 15.3748 6.75944 15.4015C6.83949 15.4285 6.93736 15.4308 7.03523 15.406L7.00455 15.2848C6.92646 15.3046 6.85338 15.3012 6.7993 15.2831C6.74449 15.2646 6.71726 15.2345 6.70988 15.2054L6.5887 15.2361ZM7.03523 15.406L7.89034 15.1894L7.85966 15.0683L7.00455 15.2848L7.03523 15.406ZM8.05958 15.6032L7.93559 15.1135L7.81441 15.1442L7.9384 15.6338L8.05958 15.6032ZM7.77641 16.0784C7.98583 16.0253 8.11261 15.8126 8.05958 15.6032L7.9384 15.6338C7.97449 15.7763 7.88822 15.9211 7.74572 15.9572L7.77641 16.0784ZM6.33919 16.4423L7.77641 16.0784L7.74572 15.9572L6.3085 16.3211L6.33919 16.4423ZM5.86398 16.1591C5.91701 16.3686 6.12977 16.4953 6.33919 16.4423L6.3085 16.3211C6.16601 16.3572 6.02124 16.2709 5.98515 16.1284L5.86398 16.1591ZM4.94957 12.5481L5.86398 16.1591L5.98515 16.1284L5.07075 12.5174L4.94957 12.5481ZM5.23274 12.0729C5.02332 12.1259 4.89654 12.3387 4.94957 12.5481L5.07075 12.5174C5.03466 12.3749 5.12093 12.2301 5.26343 12.1941L5.23274 12.0729Z" fill="black"/>
<path d="M11.7766 8.80857L6.91659 10.0393C6.48517 10.1485 6.224 10.5868 6.33324 11.0182L8.02479 17.6982C8.13404 18.1297 8.57233 18.3908 9.00374 18.2816L13.8638 17.0509C14.2952 16.9417 14.5564 16.5034 14.4471 16.0719L12.7556 9.39192C12.6463 8.9605 12.208 8.69933 11.7766 8.80857Z" fill="url(#paint3_linear_107_1098)" stroke="black" stroke-width="0.125" stroke-linecap="round" stroke-linejoin="round"/>
<path d="M11.0668 6.78099C10.8366 6.84002 10.6266 6.93867 10.442 7.06761C10.0062 6.36957 9.16193 6.00088 8.32844 6.21448C7.52333 6.42084 6.96502 7.10981 6.87807 7.89872C6.76784 7.90727 6.65684 7.92513 6.54585 7.95361C5.50852 8.21952 4.88065 9.2865 5.1433 10.3367C5.38934 11.3203 6.32948 11.9401 7.2998 11.7964L7.67192 13.2844C7.78727 13.7455 8.24992 14.0246 8.70542 13.9079C9.16091 13.7911 9.43661 13.3227 9.32127 12.8616L8.85529 10.9984C8.83227 10.9063 8.79519 10.8216 8.74736 10.7457C8.85247 10.5373 8.92127 10.3095 8.94736 10.0723C9.05759 10.0638 9.16858 10.0459 9.27958 10.0174C9.50976 9.95839 9.71973 9.85974 9.90438 9.7308C10.3402 10.4288 11.1844 10.7975 12.0179 10.5839C13.0552 10.318 13.6831 9.25103 13.4205 8.20088C13.1578 7.15072 12.1038 6.51508 11.0665 6.78099H11.0668Z" fill="white" stroke="black" stroke-width="0.125" stroke-linecap="round" stroke-linejoin="round"/>
<path d="M9.12783 16.3996C9.61709 16.3996 10.0137 15.9857 10.0137 15.4752C10.0137 14.9647 9.61709 14.5508 9.12783 14.5508C8.63857 14.5508 8.24194 14.9647 8.24194 15.4752C8.24194 15.9857 8.63857 16.3996 9.12783 16.3996Z" fill="white" stroke="black" stroke-width="0.125" stroke-linecap="round" stroke-linejoin="round"/>
<defs>
<linearGradient id="paint0_linear_107_1098" x1="18.2094" y1="10.776" x2="18.2094" y2="13.9523" gradientUnits="userSpaceOnUse">
<stop stop-color="#FFA4DA"/>
<stop offset="1" stop-color="#FFF158"/>
</linearGradient>
<linearGradient id="paint1_linear_107_1098" x1="14.3353" y1="14.9509" x2="15.9545" y2="8.55673" gradientUnits="userSpaceOnUse">
<stop stop-color="#FFF94A"/>
<stop offset="1" stop-color="#FF9FE2"/>
</linearGradient>
<linearGradient id="paint2_linear_107_1098" x1="6.50455" y1="11.7595" x2="6.50455" y2="16.392" gradientUnits="userSpaceOnUse">
<stop stop-color="#FFA4DA"/>
<stop offset="1" stop-color="#FFF158"/>
</linearGradient>
<linearGradient id="paint3_linear_107_1098" x1="9.3466" y1="9.42391" x2="11.4338" y2="17.6662" gradientUnits="userSpaceOnUse">
<stop stop-color="#FFF94A"/>
<stop offset="1" stop-color="#FF9FE2"/>
</linearGradient>
</defs>
</svg>
