<svg width="24" height="24" viewBox="0 0 24 24" fill="none" xmlns="http://www.w3.org/2000/svg">
<path d="M9.92485 10.9108C10.6994 10.9241 11.4393 11.0685 12.1252 11.4428C12.3926 11.5886 12.6381 11.7654 12.8555 11.9797C12.9542 12.0768 13.0683 12.12 13.2072 12.1181C13.5257 12.114 13.8443 12.1147 14.1628 12.1181C14.2889 12.1195 14.3996 12.0869 14.4898 11.9987C14.9847 11.5151 15.5798 11.2201 16.2445 11.0586C16.8442 10.9131 17.4518 10.8968 18.064 10.9572C18.837 11.0336 19.5787 11.2371 20.3055 11.5044C20.3571 11.5234 20.38 11.5455 20.3786 11.6052C20.3743 11.8052 20.3763 12.0054 20.3774 12.2056C20.3777 12.2479 20.3706 12.2757 20.33 12.3032C20.1934 12.3949 20.145 12.5423 20.1237 12.6941C20.0995 12.8679 20.0986 13.0447 20.0788 13.2194C20.0203 13.7386 19.8458 14.219 19.581 14.6661C19.3049 15.1322 18.9402 15.5077 18.4497 15.7486C18.0135 15.9628 17.5498 16.0239 17.0709 15.9908C16.4811 15.9502 15.9454 15.7642 15.4841 15.3837C15.037 15.0147 14.7422 14.54 14.5421 14.0009C14.4241 13.6826 14.3469 13.354 14.3019 13.0176C14.2708 12.7848 14.1042 12.6314 13.8724 12.6261C13.7477 12.6233 13.6228 12.6231 13.4979 12.6261C13.2636 12.6314 13.1049 12.7838 13.0624 13.0132C13.0126 13.2824 12.9631 13.5536 12.8841 13.8149C12.6948 14.4399 12.3739 14.9855 11.8606 15.4016C11.4754 15.7137 11.0335 15.8944 10.5448 15.9635C10.1114 16.0248 9.68211 16.0154 9.2608 15.8845C8.61182 15.6831 8.14324 15.2565 7.79546 14.684C7.53833 14.2606 7.37187 13.8015 7.29697 13.3118C7.27162 13.1464 7.27984 12.976 7.25906 12.8096C7.24536 12.6998 7.21567 12.5903 7.17799 12.4862C7.1563 12.4263 7.1152 12.3613 7.06405 12.3273C6.99371 12.2807 6.98686 12.2268 6.98823 12.1544C6.99166 11.9703 6.99189 11.7861 6.98778 11.6019C6.98664 11.5459 7.00696 11.5243 7.05651 11.506C7.70754 11.2642 8.37205 11.0752 9.06099 10.9847C9.34734 10.9473 9.63689 10.9346 9.92485 10.9108ZM10.1589 15.6517C10.1694 15.6517 10.1799 15.6523 10.1904 15.6517C10.2407 15.6482 10.2911 15.645 10.3411 15.6404C10.9449 15.5853 11.4678 15.3566 11.8862 14.9077C12.2872 14.4776 12.5125 13.9577 12.6466 13.3919C12.6564 13.3506 12.6667 13.3092 12.6747 13.2674C12.6824 13.227 12.6875 13.1859 12.6936 13.145C12.2157 14.3579 11.4594 15.2774 10.1587 15.6517H10.1589ZM19.7271 13.1108C19.715 13.145 19.7031 13.179 19.6908 13.2132C19.4924 13.7634 19.2336 14.2803 18.8491 14.7256C18.489 15.1428 18.0624 15.462 17.5253 15.614C17.4959 15.6223 17.4669 15.6315 17.4376 15.6404C17.9092 15.6271 18.3339 15.4827 18.6997 15.1814C19.1542 14.8071 19.4296 14.3152 19.6097 13.763C19.6782 13.5529 19.7312 13.3388 19.7271 13.1111V13.1108Z" fill="#5A5A5A" stroke="black" stroke-width="0.125" stroke-miterlimit="10"/>
<path d="M12.1324 10.3847C9.64622 10.3847 9.03392 10.997 9.03392 13.4832C9.03392 10.997 8.42162 10.3847 5.93542 10.3847C8.42162 10.3847 9.03392 9.77245 9.03392 7.28625C9.03392 9.77245 9.64622 10.3847 12.1324 10.3847Z" fill="url(#paint0_radial_107_1331)" stroke="#040000" stroke-width="0.125" stroke-linecap="round" stroke-linejoin="round"/>
<path d="M8.04003 7.52002C6.82039 7.52002 6.52002 7.82039 6.52002 9.04003C6.52002 7.82039 6.21964 7.52002 5 7.52002C6.21964 7.52002 6.52002 7.21964 6.52002 6C6.52002 7.21964 6.82039 7.52002 8.04003 7.52002Z" fill="url(#paint1_radial_107_1331)" stroke="#040000" stroke-width="0.125" stroke-linecap="round" stroke-linejoin="round"/>
<defs>
<radialGradient id="paint0_radial_107_1331" cx="0" cy="0" r="1" gradientUnits="userSpaceOnUse" gradientTransform="translate(9.03392 10.3847) rotate(90) scale(3.0985)">
<stop stop-color="white"/>
<stop offset="1" stop-color="#FFFF00"/>
</radialGradient>
<radialGradient id="paint1_radial_107_1331" cx="0" cy="0" r="1" gradientUnits="userSpaceOnUse" gradientTransform="translate(6.52002 7.52002) rotate(90) scale(1.52002)">
<stop stop-color="white"/>
<stop offset="1" stop-color="#FFFF00"/>
</radialGradient>
</defs>
</svg>
